<?xml version="1.0" standalone="no"?>
<!DOCTYPE svg PUBLIC "-//W3C//DTD SVG 20010904//EN"
 "http://www.w3.org/TR/2001/REC-SVG-20010904/DTD/svg10.dtd">
<svg version="1.0" xmlns="http://www.w3.org/2000/svg"
 width="1262.000000pt" height="1262.000000pt" viewBox="0 0 1262.000000 1262.000000"
 preserveAspectRatio="xMidYMid meet">

<g transform="translate(0.000000,1262.000000) scale(0.100000,-0.100000)"
fill="#000000" stroke="none">
<path d="M0 6310 l0 -6310 960 0 c847 0 959 2 954 15 -4 8 -10 12 -15 9 -13
-8 -11 10 4 25 10 11 9 13 -3 9 -11 -4 -15 2 -15 26 0 17 3 36 7 42 5 7 1 14
-7 18 -18 7 -20 57 -3 74 9 9 8 12 -5 12 -20 0 -23 30 -5 48 9 9 9 12 0 12 -7
0 -12 7 -12 16 0 8 4 13 8 10 4 -2 9 4 9 15 1 11 -2 17 -7 14 -15 -9 -18 19
-4 52 13 33 9 77 -7 67 -5 -3 -6 2 -3 10 3 9 9 14 13 12 3 -2 7 10 7 27 1 18
-1 26 -3 20 -3 -7 -12 -13 -21 -13 -15 1 -14 3 3 18 23 21 31 43 13 40 -7 -2
-11 4 -10 12 8 33 8 146 0 168 -6 16 -4 24 7 28 21 9 19 27 -3 20 -15 -5 -15
-5 -1 6 9 7 14 19 11 27 -2 7 2 17 9 22 8 5 10 9 4 9 -5 0 -11 11 -11 25 -1
14 3 25 8 25 6 0 6 6 -1 14 -10 11 -8 17 6 26 16 10 16 11 1 6 -23 -7 -24 21
-1 46 16 18 16 18 -2 12 -13 -5 -16 -4 -11 5 4 6 2 19 -5 27 -9 12 -9 13 2 9
11 -4 14 4 13 35 -1 32 2 38 13 28 11 -8 12 -7 8 5 -4 8 -1 18 4 22 6 3 8 11
5 17 -4 6 0 15 7 20 10 6 7 7 -10 3 -21 -6 -22 -5 -10 8 8 8 17 13 21 11 13
-8 1 28 -13 38 -11 8 -11 9 3 5 10 -4 18 1 21 14 3 10 1 17 -3 14 -16 -10 -17
20 -1 32 9 7 11 13 5 13 -20 0 -10 74 10 78 13 3 14 7 6 17 -7 8 -9 28 -4 50
5 27 9 33 16 23 6 -8 7 -4 3 13 -5 19 -2 28 9 32 9 4 16 12 16 19 0 9 -3 8
-10 -2 -6 -10 -10 -11 -10 -2 0 7 -14 12 -35 12 -44 0 -55 22 -28 53 11 12 23
30 26 40 6 15 3 17 -15 11 -17 -5 -20 -3 -15 11 4 9 7 19 7 21 0 2 11 4 24 4
36 0 52 -25 39 -61 -13 -34 -2 -38 21 -7 14 20 15 21 10 3 -5 -16 -4 -17 5 -5
7 11 5 20 -7 34 -9 11 -11 16 -4 12 7 -5 12 -1 13 11 1 13 3 11 9 -7 l8 -25 1
28 c1 15 -4 27 -10 27 -7 0 -8 7 -4 18 4 9 8 22 8 29 0 7 5 9 10 6 6 -4 8 0 4
10 -3 10 -2 17 2 17 5 0 8 8 6 18 -1 9 2 22 7 29 5 7 7 17 4 22 -4 5 -2 12 3
15 5 3 7 15 4 26 -3 12 0 20 6 20 7 0 9 4 6 10 -7 11 8 42 18 41 22 -3 29 2
13 8 -11 4 -20 15 -22 24 -1 10 2 15 7 11 5 -3 9 0 9 6 0 7 7 9 16 6 8 -3 13
-2 9 3 -3 5 -2 11 2 14 5 2 3 3 -3 1 -6 -1 -11 4 -11 12 0 7 4 11 9 8 7 -5 10
3 7 24 -1 4 -5 6 -10 4 -5 -1 -4 7 3 17 7 11 16 17 20 15 5 -3 5 -10 2 -16 -4
-7 -2 -8 5 -4 8 5 9 12 2 20 -8 10 -9 30 -1 56 1 3 5 -4 9 -15 6 -14 8 -5 10
30 4 78 5 84 16 82 5 -1 9 6 9 16 -1 9 2 17 7 17 5 0 9 9 9 20 0 22 26 80 36
80 3 0 2 -6 -2 -12 -4 -8 -2 -8 7 1 11 10 11 15 2 18 -10 3 -10 10 -2 25 9 17
13 18 21 7 7 -10 8 -8 5 8 -3 13 -1 26 4 29 5 3 7 9 4 13 -2 5 7 13 20 19 14
7 25 17 25 23 0 8 -4 8 -15 -1 -12 -10 -15 -10 -15 4 0 9 5 16 10 16 6 0 10
11 10 25 0 16 6 25 16 25 9 0 12 5 8 12 -5 8 -2 9 11 4 16 -6 16 -4 4 11 -12
15 -12 16 3 10 12 -4 15 -2 11 8 -3 8 -10 12 -17 8 -6 -3 -3 3 7 14 9 11 17
26 17 34 0 12 2 12 10 -1 5 -9 5 -19 -2 -27 -6 -8 -8 -16 -5 -19 3 -3 10 3 16
14 12 23 5 52 -12 52 -6 0 -3 6 6 13 16 11 17 15 2 44 -22 44 -6 78 64 135 25
21 35 23 25 6 -5 -9 -2 -9 9 1 18 15 23 26 7 16 -5 -3 -10 1 -10 10 0 21 30
66 40 60 4 -3 10 2 14 10 4 13 -8 15 -72 15 -50 0 -85 5 -97 13 -27 21 -4 31
90 37 69 4 80 7 77 23 -2 10 3 17 13 17 8 0 15 5 15 10 0 6 -4 10 -10 10 -5 0
-10 5 -10 11 0 5 6 7 13 3 8 -6 8 -3 -1 9 -8 9 -15 30 -16 46 -2 30 -2 30 18
13 20 -16 20 -16 7 1 -7 9 -10 17 -6 17 4 0 3 6 -3 13 -8 9 -7 21 3 41 17 33
19 46 5 46 -5 0 -7 -6 -4 -14 3 -8 1 -17 -5 -20 -15 -10 -23 31 -11 55 8 15 9
19 1 15 -6 -4 -11 -2 -11 4 0 6 -4 9 -8 6 -8 -5 -12 8 -13 47 0 10 -5 30 -10
44 -8 22 -8 24 5 14 12 -10 14 -9 12 6 -3 18 -6 19 -48 22 -19 1 -20 3 -8 11
13 9 12 12 -4 25 -10 8 -22 12 -26 10 -4 -3 -7 5 -6 18 1 19 -5 23 -48 27 -59
6 -69 23 -24 40 29 12 30 14 11 17 -12 2 -24 11 -27 18 -7 18 26 37 51 29 17
-5 17 -5 -1 10 -10 8 -15 19 -12 25 4 5 -3 12 -14 16 -11 3 -20 11 -20 16 0 5
-7 9 -15 9 -9 0 -15 9 -15 23 -1 28 -39 82 -40 54 0 -10 7 -20 15 -23 14 -6
22 -34 9 -34 -22 0 -42 23 -39 45 1 17 -1 23 -9 18 -7 -5 -4 0 7 9 20 19 14
43 -8 34 -8 -3 -16 2 -18 10 -3 9 -4 8 -3 -3 1 -12 9 -17 21 -15 16 2 17 1 6
-7 -8 -5 -20 -7 -27 -4 -14 5 -30 61 -20 70 3 3 -2 12 -10 20 -8 8 -12 19 -9
24 4 5 1 9 -5 9 -7 0 -9 -7 -6 -15 20 -50 20 -49 -1 -29 -11 10 -18 24 -16 30
2 6 -2 18 -10 25 -8 8 -19 26 -26 39 l-12 25 20 -23 c18 -21 20 -21 18 -3 0
11 -5 17 -9 15 -4 -3 -10 7 -14 21 -3 14 -10 25 -16 25 -5 0 -7 4 -3 9 3 5 -1
16 -9 24 -8 8 -12 18 -8 22 4 5 1 5 -5 1 -16 -9 -16 -11 3 -30 8 -9 11 -16 5
-16 -17 0 -33 39 -25 62 5 18 4 19 -9 7 -8 -8 -12 -18 -9 -23 3 -5 0 -6 -6 -2
-6 4 -9 13 -5 22 3 8 -6 26 -21 41 -18 17 -23 29 -16 33 8 5 3 17 -14 35 -20
22 -23 31 -15 42 7 7 9 16 5 20 -3 3 -6 1 -6 -6 0 -9 -3 -9 -13 1 -8 7 -12 22
-10 33 4 15 2 17 -5 6 -12 -17 -24 0 -12 18 4 8 13 10 19 7 6 -4 11 -3 11 2 0
5 -14 12 -30 16 -32 6 -40 32 -18 54 9 9 9 15 -1 25 -11 10 -13 10 -7 0 10
-18 -12 -16 -30 2 -14 13 -13 15 3 16 10 0 13 3 5 6 -6 2 -10 9 -6 14 3 5 -2
9 -10 9 -8 0 -18 4 -21 10 -3 5 0 7 8 4 26 -10 27 23 1 37 -14 7 -22 19 -19
26 2 8 1 12 -4 9 -5 -3 -11 3 -14 14 -3 11 0 20 6 20 7 0 4 5 -6 11 -9 6 -15
14 -12 20 4 5 -1 9 -9 9 -10 0 -13 6 -10 15 4 8 1 15 -5 15 -6 0 -8 7 -4 17 4
11 3 14 -5 9 -8 -5 -10 -2 -6 9 4 8 1 22 -6 30 -9 10 -9 15 -1 15 6 0 11 -5
11 -12 0 -6 3 -9 6 -5 3 3 -3 18 -13 34 -27 38 -35 63 -21 63 7 0 3 6 -8 14
-10 8 -16 18 -12 22 4 4 15 1 25 -7 13 -11 15 -11 9 -1 -4 7 -19 17 -32 22
-15 6 -22 15 -18 25 3 8 10 15 16 15 5 0 6 5 3 10 -4 6 -10 8 -15 5 -4 -3 -10
4 -13 16 -4 16 -2 19 16 14 22 -5 22 -5 1 6 -15 8 -20 18 -18 42 2 18 1 25 -2
15 -3 -9 -12 -19 -21 -22 -13 -5 -14 -4 -4 8 6 8 9 28 6 45 -5 29 7 43 18 21
3 -6 4 -5 3 2 -1 7 -12 14 -23 16 -26 4 -38 31 -18 38 29 12 15 40 -17 35 -10
-1 3 32 16 41 8 5 7 8 -1 8 -7 0 -17 9 -22 19 -9 16 -8 18 12 14 14 -3 18 -2
10 4 -6 5 -10 20 -9 35 2 18 -1 25 -10 21 -8 -3 -15 6 -19 24 -4 15 -11 41
-15 56 -6 17 -6 25 0 22 6 -4 10 -1 10 5 0 6 -7 13 -16 17 -13 5 -13 7 -2 14
8 6 9 12 3 17 -6 4 -10 14 -10 22 1 8 -1 19 -4 24 -7 15 -8 56 0 56 8 0 20 42
14 49 -3 2 -8 -7 -13 -19 l-9 -24 -5 22 c-4 12 -2 22 3 22 6 0 5 9 -2 21 -9
17 -8 23 2 30 11 7 11 9 -2 9 -19 0 -21 27 -2 34 7 3 13 11 13 18 0 9 -3 8
-10 -2 -8 -12 -10 -10 -10 9 0 16 4 22 15 17 8 -3 15 -1 15 4 0 6 -9 10 -20
10 -11 0 -20 -5 -20 -12 0 -6 -3 -8 -6 -5 -4 4 -2 13 4 20 7 8 8 17 4 22 -4 4
3 2 16 -4 29 -16 28 -4 -4 25 -15 15 -22 29 -17 36 5 9 9 5 13 -12 5 -22 7
-23 13 -7 11 29 8 47 -7 47 -7 0 -16 12 -19 26 -4 22 -2 25 17 20 19 -5 19 -3
-4 15 -24 20 -24 21 -2 16 12 -3 20 -1 16 4 -3 5 -11 9 -19 9 -16 0 -12 34 6
56 8 10 8 14 0 14 -16 0 -13 30 4 36 8 4 12 10 9 15 -3 5 -9 7 -13 5 -4 -3 -8
9 -8 27 -1 18 -3 48 -6 67 -2 19 -1 45 4 57 10 26 15 24 -196 74 -313 75 -579
205 -749 368 -89 86 -166 198 -166 244 0 25 113 263 411 863 716 1446 1036
2085 1120 2239 45 83 89 164 97 180 18 35 30 45 48 38 26 -10 148 -231 362
-658 77 -155 148 -287 158 -295 11 -9 15 -10 10 -2 -4 7 -2 12 6 12 9 0 9 3
-2 10 -10 6 -11 10 -2 10 6 0 12 7 12 15 0 9 9 15 23 16 21 0 21 1 2 9 -18 7
-19 8 -3 15 10 4 15 11 12 16 -3 5 -3 9 1 9 3 0 10 -10 15 -22 8 -19 9 -17 6
14 -2 21 1 35 5 32 5 -3 9 4 9 16 0 11 6 23 14 26 8 3 12 14 9 27 -3 15 -2 18
4 9 7 -9 15 -1 31 26 12 22 18 42 14 46 -4 4 -2 6 3 5 18 -5 56 12 49 22 -3 6
-12 5 -22 -3 -15 -11 -15 -11 -5 3 7 9 9 19 5 23 -4 4 0 6 8 4 9 -2 16 6 18
20 2 12 8 20 13 16 5 -3 7 -10 4 -15 -4 -5 -2 -9 4 -9 6 0 7 15 4 37 -5 28 -3
34 7 28 10 -6 12 -2 8 18 -4 18 -1 24 9 20 7 -3 13 -9 13 -14 0 -4 7 -6 15 -3
11 5 13 10 5 19 -12 14 6 65 22 65 6 0 8 6 6 12 -5 14 16 38 47 57 19 11 18
11 -4 5 -24 -6 -24 -6 7 34 18 22 32 47 32 57 0 9 5 13 10 10 6 -3 10 1 10 9
0 28 1 31 16 39 8 5 12 12 9 17 -3 4 5 6 17 3 13 -3 19 -1 13 4 -14 11 -18 36
-5 28 5 -3 10 3 10 14 0 12 6 21 14 21 8 0 18 10 22 23 7 21 7 21 15 2 7 -19
8 -19 8 2 1 28 21 73 33 73 5 0 6 5 3 10 -3 6 -2 10 4 10 5 0 11 -5 13 -11 2
-7 10 7 17 31 7 24 16 38 19 32 5 -7 13 -6 26 3 10 8 16 18 13 22 -3 5 -2 15
4 23 7 13 9 12 9 -2 0 -20 15 -24 26 -6 4 7 3 8 -4 4 -8 -5 -12 1 -12 16 0 13
10 29 23 37 20 13 21 13 8 -2 -11 -14 -11 -17 0 -17 11 0 11 -3 -1 -11 -13 -9
-13 -10 0 -6 8 2 15 8 16 13 2 17 23 59 23 46 1 -7 5 -11 10 -7 6 3 8 14 6 24
-3 14 1 18 16 14 15 -4 18 -2 13 11 -3 9 -1 16 5 16 6 0 11 -7 11 -17 0 -16
14 -10 16 8 4 30 7 31 14 9 5 -17 8 -19 9 -7 1 9 7 17 14 17 17 1 63 37 55 45
-3 4 -16 -3 -27 -14 -25 -25 -27 -25 -35 -5 -3 8 -2 12 4 9 6 -3 10 -1 10 4 0
6 9 11 20 11 11 0 20 5 20 11 0 5 4 8 9 5 5 -4 12 0 15 6 4 7 4 2 2 -12 -4
-22 -3 -23 7 -9 7 9 21 19 32 22 18 4 17 5 -3 6 -13 0 -21 5 -18 10 4 5 17 8
31 6 14 -1 25 2 25 7 0 6 6 8 14 5 8 -3 17 1 20 9 3 9 10 12 16 9 5 -3 7 0 4
8 -2 7 3 23 13 33 10 11 14 14 9 7 -10 -16 -5 -16 28 -3 16 6 27 6 31 0 8 -13
25 -13 25 1 0 5 -4 7 -10 4 -5 -3 -10 -1 -10 4 0 6 5 11 11 11 5 0 7 5 4 10
-4 6 -3 10 2 9 4 -1 10 0 13 1 28 11 42 7 37 -11 -3 -10 -1 -17 4 -13 5 3 9
12 9 21 0 9 6 13 14 10 8 -3 17 -3 20 1 11 10 46 9 46 -2 0 -6 11 -12 25 -12
21 -2 22 0 10 13 -8 8 -15 17 -15 21 0 3 5 1 12 -6 17 -17 28 -15 28 6 0 14 2
14 9 3 5 -8 16 -11 24 -8 12 4 15 1 11 -11 -5 -14 -3 -14 10 2 13 16 18 17 31
6 8 -7 15 -8 15 -2 0 5 9 12 20 15 15 4 20 0 20 -16 1 -21 1 -21 16 3 8 14 13
17 10 8 -6 -20 14 -24 31 -7 6 6 25 8 47 3 29 -5 36 -10 32 -23 -5 -14 -5 -14
6 -1 7 8 24 16 38 17 23 3 23 2 8 -11 -10 -7 -15 -16 -11 -19 9 -10 25 -9 19
1 -2 4 3 13 13 19 16 10 20 7 30 -15 10 -20 14 -23 21 -12 6 9 3 18 -8 27 -9
7 4 3 29 -9 45 -23 48 -40 5 -31 -19 3 -19 3 2 -7 16 -7 30 -7 44 1 15 8 23 8
32 -1 8 -8 6 -9 -8 -4 -12 5 -17 4 -13 -3 9 -14 56 -23 63 -12 3 5 13 5 23 -1
10 -5 22 -6 26 -2 5 4 5 1 1 -5 -5 -8 -1 -13 11 -14 10 0 13 -3 6 -5 -6 -3
-23 2 -37 12 -23 15 -26 15 -26 0 0 -10 5 -13 17 -9 10 4 14 2 10 -4 -6 -9 13
-10 61 -5 7 1 10 7 6 14 -4 7 -3 8 5 4 6 -4 9 -10 7 -14 -7 -12 18 -27 41 -26
12 1 20 -3 17 -8 -3 -4 -10 -6 -15 -3 -5 3 -6 -1 -3 -9 3 -8 12 -17 21 -20 11
-4 13 -2 9 9 -6 17 9 21 19 4 4 -6 14 -8 22 -5 8 3 11 1 8 -4 -3 -6 -1 -10 5
-10 6 0 8 -5 4 -12 -5 -8 -2 -9 9 -5 9 3 19 2 23 -4 3 -6 17 -14 31 -20 13 -5
22 -13 19 -18 -3 -4 3 -16 14 -26 11 -10 20 -15 20 -10 0 4 7 2 15 -5 9 -7 15
-8 15 -2 0 9 -24 24 -42 26 -3 1 -10 4 -14 9 -11 11 12 8 41 -5 20 -9 26 -18
22 -35 -2 -13 0 -23 4 -23 5 0 9 7 9 15 0 8 5 15 11 15 5 0 7 -4 4 -10 -3 -5
1 -10 11 -10 12 0 15 -6 11 -21 -3 -12 -3 -18 0 -15 4 3 13 0 22 -7 14 -11 14
-10 2 6 -18 23 -7 34 14 13 9 -9 20 -16 24 -16 4 0 13 -12 20 -27 10 -22 14
-24 22 -12 7 11 9 9 9 -8 0 -13 5 -23 11 -23 5 0 8 4 5 9 -4 5 3 7 15 4 16 -4
17 -8 7 -14 -10 -7 -10 -9 2 -10 8 -1 19 -1 23 0 4 1 7 -7 5 -16 -2 -11 2 -17
10 -15 19 3 45 -25 36 -40 -5 -10 -4 -10 6 -1 10 9 16 9 26 0 7 -7 21 -18 29
-26 9 -7 14 -20 10 -28 -4 -13 -3 -14 10 -3 13 11 15 8 15 -18 0 -17 5 -34 12
-38 8 -5 9 -2 5 9 -4 10 -2 17 5 17 7 0 6 6 -3 18 -11 15 -11 15 1 4 8 -7 15
-16 15 -20 1 -15 30 -52 41 -52 11 0 29 -28 26 -41 -1 -3 10 -4 23 -1 20 3 25
0 25 -16 0 -11 11 -27 25 -36 15 -10 23 -22 19 -29 -5 -9 -4 -9 5 -1 21 19 61
-6 61 -38 0 -22 3 -25 23 -20 19 5 20 3 9 -10 -10 -12 -9 -18 3 -28 8 -7 15
-9 15 -4 0 5 5 2 10 -6 5 -8 10 -10 10 -4 0 7 7 15 16 18 8 3 12 2 9 -4 -6
-10 9 -15 30 -10 5 1 7 -1 3 -5 -4 -4 5 -18 20 -32 18 -16 21 -23 10 -19 -15
5 -16 3 -5 -14 7 -12 18 -18 28 -15 25 8 49 -5 50 -29 1 -16 2 -17 6 -3 2 9 9
17 14 17 6 0 7 -4 4 -10 -3 -5 -1 -10 4 -10 6 0 11 5 11 11 0 8 5 7 15 -1 13
-11 13 -15 3 -21 -9 -6 -9 -9 -1 -9 6 0 15 5 19 11 4 8 13 4 26 -12 11 -15 16
-18 12 -6 -7 19 12 24 19 5 4 -10 6 -10 6 0 1 18 51 -16 51 -35 0 -8 4 -12 9
-9 5 4 12 0 14 -6 3 -7 6 -3 6 10 1 24 21 31 21 7 0 -8 5 -15 11 -15 5 0 7 6
4 13 -4 6 1 3 9 -7 15 -19 17 -19 35 -2 19 17 19 17 14 -5 -6 -20 -5 -21 9 -9
9 8 13 22 10 30 -7 21 3 10 18 -19 11 -21 10 -23 -4 -18 -9 4 -16 2 -16 -3 0
-11 23 -13 33 -4 3 4 2 15 -3 25 -7 12 -6 20 2 25 6 4 8 3 5 -3 -4 -6 1 -17
10 -24 9 -8 14 -9 10 -3 -4 7 0 14 8 17 8 4 16 -2 20 -14 7 -20 7 -20 21 -2
13 17 13 17 14 0 0 -16 2 -16 22 3 12 11 27 20 33 20 6 0 17 11 25 24 12 23
50 33 50 13 0 -5 -7 -6 -16 -3 -8 3 -13 2 -10 -3 3 -5 -1 -11 -9 -15 -8 -3
-15 -11 -15 -18 0 -10 2 -10 9 0 5 8 20 15 34 15 14 1 23 6 20 10 -6 9 16 37
29 37 5 0 6 -6 3 -12 -4 -7 1 -4 9 6 16 20 16 20 16 0 0 -14 3 -15 9 -6 4 7
15 14 23 16 9 1 24 8 34 16 16 14 17 13 11 -4 -6 -16 -5 -17 8 -6 11 9 12 17
4 31 -7 15 -7 19 3 17 7 -2 12 2 11 9 -1 6 5 10 15 9 24 -4 63 24 55 38 -4 6
6 3 21 -8 16 -10 25 -13 22 -7 -11 17 1 44 25 59 19 12 20 11 14 -7 -10 -34 4
-24 19 13 12 28 18 34 38 29 18 -4 20 -3 8 6 -13 9 -12 11 3 11 10 0 15 5 12
10 -3 6 4 10 17 10 13 0 19 4 13 8 -23 16 -15 32 12 26 18 -3 23 -2 15 3 -10
8 -8 15 8 36 21 26 48 39 34 16 -5 -8 -1 -8 14 0 23 12 34 45 20 59 -7 7 4 14
33 23 24 6 38 14 32 16 -7 3 -13 9 -13 14 0 6 5 7 10 4 6 -3 10 2 10 12 0 23
37 56 55 49 17 -6 40 20 25 29 -17 10 -11 25 9 25 11 0 23 4 26 10 3 5 0 7 -8
4 -8 -3 -14 1 -14 10 0 9 8 13 23 10 17 -3 24 2 33 27 6 17 15 28 21 24 6 -4
10 -3 9 2 -3 19 2 33 12 33 5 0 8 -4 5 -8 -3 -5 1 -9 8 -9 7 0 13 6 13 13 0 7
-5 10 -10 7 -5 -3 -8 0 -5 8 3 8 13 16 24 17 10 2 24 9 29 14 7 8 6 9 -2 4
-17 -9 -16 4 1 27 14 17 32 24 21 8 -10 -18 13 -21 26 -4 8 9 9 14 3 10 -12
-7 -29 21 -19 31 3 3 5 -1 5 -9 1 -10 4 -9 11 4 6 9 16 14 22 11 7 -4 9 -4 5
1 -11 11 11 47 24 39 6 -4 8 -3 5 3 -6 10 70 83 96 92 6 2 19 14 29 25 10 12
17 15 18 9 0 -7 4 -13 10 -13 5 0 7 6 4 14 -3 8 0 17 7 22 8 4 10 3 5 -4 -10
-16 17 -15 32 0 17 17 15 29 -3 22 -24 -10 -18 0 17 26 27 20 30 21 24 5 -7
-18 -6 -18 13 -1 11 10 24 15 30 12 6 -4 8 3 5 19 -3 19 -1 23 11 19 8 -4 15
-1 15 5 0 6 5 11 11 11 6 0 8 -9 4 -22 -3 -14 2 -9 14 12 18 30 26 33 22 7 -1
-9 41 14 51 28 13 18 -2 18 -22 0 -11 -10 -20 -13 -20 -7 0 7 5 12 11 12 5 0
8 4 5 8 -2 4 5 9 17 9 12 1 23 7 25 13 2 5 8 10 13 10 6 0 5 -8 -1 -20 -9 -16
-8 -18 5 -14 13 6 20 24 16 47 -1 5 2 6 7 3 5 -3 20 1 35 9 15 8 27 11 27 7 0
-4 5 0 11 8 8 11 12 12 16 3 2 -7 12 -13 21 -13 12 0 13 3 5 8 -7 4 -9 13 -4
21 5 7 13 11 19 7 6 -3 14 -1 18 5 5 8 9 7 14 -2 14 -21 38 -20 33 2 -3 10 0
19 6 19 6 0 11 -7 11 -15 0 -8 8 -15 18 -14 11 0 12 2 4 6 -17 7 4 33 27 33 9
0 23 6 31 13 8 6 4 -1 -10 -18 -14 -16 -17 -23 -7 -16 9 7 17 10 17 5 0 -5 5
-1 11 9 6 9 15 15 20 12 5 -4 7 -10 5 -14 -3 -4 4 -8 15 -8 16 -2 18 1 10 11
-9 10 -7 13 6 13 31 0 63 15 56 26 -3 6 -1 7 6 3 6 -4 9 -12 5 -17 -7 -11 13
-39 28 -39 6 0 8 9 5 20 -3 11 0 23 5 27 6 3 8 2 5 -4 -3 -5 9 -15 28 -21 19
-5 35 -7 35 -3 0 4 7 8 15 8 8 0 15 -4 15 -8 0 -5 7 -5 17 -2 11 5 14 3 8 -6
-6 -10 -3 -11 14 -2 18 10 20 9 14 -6 -5 -15 -4 -16 8 -7 19 15 52 14 39 -1
-6 -8 -6 -12 3 -12 6 0 22 -3 35 -7 12 -4 22 -3 22 1 0 15 50 9 60 -6 7 -12
15 -13 46 -3 21 6 40 9 43 7 2 -3 -1 -5 -8 -5 -7 0 -9 -4 -6 -10 3 -5 1 -10
-6 -10 -7 0 -9 -3 -6 -6 4 -4 13 -1 22 6 11 9 18 10 28 1 8 -6 17 -8 20 -4 7
6 11 -12 8 -30 -1 -5 3 -6 9 -2 6 3 8 10 5 15 -3 5 3 8 14 7 11 0 18 -4 15 -8
-2 -4 10 -9 27 -13 19 -3 33 -13 36 -25 5 -20 33 -38 33 -22 0 5 -6 12 -13 14
-7 3 -6 6 5 6 10 1 18 -8 20 -21 2 -12 11 -22 23 -24 19 -3 19 -2 3 10 -18 14
-25 32 -9 21 16 -9 19 7 22 125 2 100 0 121 -19 160 -40 84 -19 186 58 273
102 117 369 232 690 296 439 88 1149 93 1560 11 456 -91 742 -252 776 -436 3
-22 12 -45 18 -53 24 -30 2 -1569 -24 -1635 -10 -27 -236 -146 -381 -200 -270
-100 -695 -184 -1019 -202 -96 -5 -128 -10 -137 -22 -8 -9 -13 -11 -13 -4 0 7
-5 12 -11 12 -8 0 -8 -5 1 -15 7 -8 21 -15 32 -15 15 0 19 -5 15 -19 -3 -12 1
-22 10 -25 8 -3 12 -10 9 -15 -4 -5 0 -12 6 -14 7 -3 4 -6 -7 -7 -19 -1 -18
-2 3 -10 12 -5 22 -16 22 -25 0 -9 7 -27 16 -40 9 -14 12 -25 6 -25 -6 0 -13
6 -15 13 -4 9 -6 9 -6 0 -1 -18 18 -26 33 -14 9 8 13 7 13 -4 0 -8 -4 -15 -9
-15 -5 0 -6 -5 -3 -10 4 -6 11 -7 17 -4 7 5 8 2 2 -7 -12 -19 -14 -39 -4 -39
14 0 21 18 10 23 -6 3 -5 4 2 3 7 -2 13 -9 13 -17 1 -8 7 -13 14 -11 7 1 10
-2 6 -8 -3 -6 -11 -8 -16 -5 -5 4 -9 4 -9 1 0 -3 10 -10 21 -17 17 -9 20 -8
14 3 -3 7 0 5 8 -4 11 -14 30 -18 85 -18 39 0 72 -5 74 -10 2 -7 15 -6 36 2
31 12 35 11 51 -8 17 -21 17 -21 41 -2 25 20 71 21 77 2 2 -6 -12 -21 -30 -32
-33 -19 -58 -62 -118 -199 -13 -31 -24 -43 -39 -43 -26 0 -26 20 4 106 13 38
27 84 31 103 7 34 7 34 -23 28 -17 -3 -32 -2 -34 3 -2 5 -24 4 -50 -2 -41 -10
-48 -15 -54 -42 -7 -28 -8 -49 -5 -76 1 -5 9 -6 19 -3 15 6 16 5 2 -12 -9 -11
-10 -16 -2 -11 16 9 16 -6 0 -23 -7 -7 -8 -12 -3 -11 30 6 42 -3 52 -40 6 -22
7 -43 2 -45 -13 -9 12 -65 29 -65 14 0 14 -2 3 -9 -11 -7 -9 -10 7 -15 12 -4
19 -13 16 -21 -3 -7 0 -16 5 -20 6 -3 9 -11 6 -16 -4 -5 -2 -9 4 -9 5 0 8 -8
6 -17 -2 -10 -4 -20 -4 -23 -1 -3 -6 2 -12 10 -8 11 -9 9 -3 -10 4 -14 7 -34
6 -45 -1 -16 1 -17 8 -5 10 17 19 11 24 -16 3 -11 7 -28 11 -39 4 -14 2 -12
-8 5 -9 14 -13 29 -10 34 4 5 1 6 -5 2 -14 -8 11 -96 28 -96 13 0 33 -58 24
-71 -5 -8 -2 -11 7 -7 11 4 16 -3 17 -30 2 -20 8 -43 15 -51 8 -10 8 -13 1 -8
-7 4 -14 0 -18 -8 -3 -8 -1 -15 5 -15 6 0 8 -4 5 -8 -2 -4 0 -14 6 -22 8 -12
9 -12 4 3 -3 9 -1 17 5 17 6 0 8 -26 6 -65 -4 -56 -2 -67 14 -76 11 -5 19 -18
19 -29 0 -10 5 -31 11 -47 6 -15 12 -51 13 -79 0 -28 7 -58 14 -67 9 -10 10
-17 2 -22 -6 -3 -8 -11 -5 -16 4 -5 2 -9 -4 -9 -5 0 -12 6 -14 13 -3 7 -6 5
-6 -5 -1 -10 6 -18 14 -18 17 0 20 -25 5 -35 -13 -8 -13 -25 1 -25 5 0 7 5 3
12 -4 7 -3 8 4 4 18 -11 15 -56 -3 -56 -27 0 -16 -20 13 -21 19 -1 21 -3 8 -6
-13 -4 -15 -7 -7 -13 9 -5 8 -11 -4 -24 -9 -9 -13 -16 -8 -16 5 0 14 5 21 12
19 19 14 -3 -5 -25 -16 -18 -16 -20 -1 -14 25 9 30 -4 12 -31 -10 -15 -11 -21
-3 -17 9 6 11 3 6 -8 -4 -12 -1 -17 10 -17 13 0 11 -4 -7 -20 -19 -16 -20 -20
-6 -20 13 0 15 -6 10 -26 -4 -16 -2 -29 6 -34 9 -5 9 -9 1 -14 -6 -4 -15 3
-20 16 -10 23 -10 22 -10 -4 -1 -16 4 -28 9 -28 6 0 10 -6 9 -12 -1 -7 1 -21
6 -31 6 -15 10 -16 16 -5 7 11 9 11 9 0 0 -8 -9 -16 -20 -19 -11 -3 -20 -10
-20 -15 0 -5 4 -7 9 -4 5 3 11 -3 14 -14 3 -11 0 -18 -5 -17 -6 1 -13 -4 -16
-12 -3 -10 0 -12 11 -8 12 5 17 -2 19 -31 2 -20 -1 -45 -7 -56 -7 -13 -6 -20
3 -23 6 -3 9 -9 6 -14 -3 -6 -12 -2 -20 8 -8 11 -13 13 -14 6 0 -7 8 -18 18
-24 13 -8 16 -22 15 -67 -3 -68 -9 -86 -24 -76 -8 4 -9 3 -5 -5 4 -6 12 -9 17
-6 5 4 9 -2 10 -12 0 -10 2 -26 4 -35 2 -11 -2 -15 -11 -11 -8 3 -14 0 -14 -6
0 -6 10 -11 22 -11 17 0 19 -3 10 -12 -14 -14 -16 -32 -3 -24 5 4 7 -3 4 -14
-3 -11 -13 -20 -22 -20 -10 0 -12 -3 -5 -8 6 -4 14 -19 18 -34 3 -16 12 -28
19 -28 9 0 9 -3 -1 -9 -16 -10 -23 -79 -9 -84 7 -2 7 -6 -1 -11 -8 -4 -16 1
-21 16 -7 16 -10 18 -10 6 -1 -9 10 -28 22 -41 22 -21 23 -25 9 -46 -16 -23
-25 -104 -12 -96 4 3 10 -4 13 -15 3 -11 1 -18 -4 -14 -5 3 -10 2 -10 -3 -5
-32 -5 -52 0 -49 3 2 12 -2 19 -10 7 -8 8 -14 2 -14 -5 0 -10 -12 -10 -26 0
-17 -4 -24 -13 -21 -8 3 -13 -3 -13 -14 0 -11 6 -17 12 -15 17 6 9 -35 -8 -46
-10 -6 -9 -8 2 -8 12 0 12 -2 1 -9 -9 -6 -10 -11 -2 -15 6 -4 11 -17 11 -30 0
-12 6 -28 13 -35 10 -11 9 -12 -2 -6 -11 6 -13 4 -7 -11 4 -10 4 -15 0 -12
-13 14 -32 -16 -22 -36 7 -13 7 -21 -2 -26 -9 -6 -9 -9 1 -14 11 -5 11 -7 1
-12 -6 -3 -10 -10 -6 -15 3 -5 0 -9 -6 -9 -6 0 -8 -5 -5 -11 11 -17 17 -76 7
-61 -8 11 -10 11 -14 0 -5 -16 16 -61 25 -52 4 4 1 -5 -6 -19 -7 -16 -14 -21
-19 -14 -4 6 -4 15 -2 19 3 4 0 8 -6 8 -7 0 -9 -8 -4 -22 13 -42 9 -73 -11
-91 -20 -18 -20 -18 1 -8 19 9 21 8 16 -15 -3 -16 -7 -21 -12 -14 -5 8 -12 0
-19 -21 -14 -40 -14 -52 -1 -44 6 4 7 11 4 17 -4 6 -2 8 4 5 5 -4 9 -15 7 -25
-2 -9 -4 -23 -4 -30 -1 -7 -5 -11 -10 -7 -5 3 -13 0 -17 -6 -4 -8 -3 -9 4 -5
7 4 12 1 12 -9 0 -9 -4 -14 -8 -11 -5 3 -7 -9 -5 -27 2 -18 0 -26 -3 -19 -3 6
-10 12 -15 12 -6 0 -7 -6 -3 -12 11 -17 12 -88 2 -82 -4 3 -8 -4 -8 -16 0 -14
-4 -19 -12 -14 -7 4 -5 -2 5 -13 9 -11 14 -23 11 -26 -4 -4 -13 1 -21 11 -8 9
-12 11 -8 5 3 -7 1 -13 -5 -13 -6 0 -8 -4 -5 -10 3 -5 1 -10 -4 -10 -6 0 -10
-10 -10 -22 1 -16 3 -18 6 -7 5 20 40 32 40 14 0 -8 -7 -11 -15 -7 -11 4 -14
1 -9 -10 3 -10 0 -19 -9 -22 -8 -3 -14 -11 -14 -18 0 -9 3 -8 10 2 5 8 10 10
10 4 0 -6 -3 -14 -7 -18 -11 -11 -10 -30 2 -38 6 -5 6 -8 -2 -8 -7 0 -13 -9
-13 -20 0 -28 -21 -70 -32 -63 -6 3 -5 -4 1 -16 9 -16 9 -21 0 -21 -6 0 -8 -7
-5 -16 6 -15 4 -15 -11 -3 -9 8 -14 9 -10 2 4 -6 -1 -18 -13 -26 -11 -7 -17
-17 -13 -20 10 -10 25 -8 18 2 -3 5 -1 12 4 15 15 10 6 -22 -12 -42 -9 -10
-18 -35 -19 -55 -2 -20 -6 -37 -10 -37 -5 0 -11 0 -15 0 -5 1 -7 11 -6 23 3
21 2 21 -6 2 -5 -11 -5 -24 0 -29 5 -6 9 -17 9 -25 0 -14 -2 -14 -11 -1 -9 12
-10 11 -6 -7 4 -16 1 -20 -11 -16 -11 5 -13 3 -7 -6 4 -8 2 -17 -6 -23 -11 -8
-10 -9 4 -4 20 6 23 -7 3 -23 -8 -7 -17 -27 -20 -46 -5 -24 -11 -33 -21 -28
-10 3 -19 -5 -28 -26 -7 -17 -17 -28 -22 -24 -4 5 -5 2 -1 -5 4 -7 13 -9 19
-5 9 5 9 3 1 -8 -5 -8 -10 -21 -9 -29 0 -8 -5 -21 -12 -28 -9 -9 -12 -112 -12
-420 0 -224 -4 -408 -9 -410 -4 -1 -18 15 -29 35 -12 21 -35 48 -52 61 -18 13
-28 28 -25 36 6 16 -50 58 -133 99 -28 15 -68 38 -89 52 -20 14 -45 25 -55 25
-27 0 -31 15 -14 62 18 51 19 104 4 201 -13 90 -36 165 -61 196 -10 14 -28 43
-38 65 -30 60 -59 102 -112 156 -30 32 -51 64 -58 92 -7 24 -18 58 -26 76 -8
18 -14 34 -14 36 0 2 28 6 62 10 193 18 210 26 234 121 15 57 15 59 -10 107
-14 28 -26 57 -26 67 0 9 -12 34 -26 55 -30 44 -23 56 37 56 64 0 96 18 131
73 48 75 45 128 -16 253 l-46 95 38 15 c66 26 82 37 123 81 33 36 39 49 39 86
0 27 -7 54 -18 68 -10 13 -31 46 -47 73 -15 28 -39 60 -52 72 l-24 22 43 24
c23 12 55 42 72 65 25 36 29 52 30 108 l1 65 -78 71 c-88 81 -88 79 -2 134 69
43 121 99 128 134 4 16 -1 53 -11 83 l-17 53 -99 50 c-55 28 -101 55 -103 60
-4 14 56 51 95 60 58 12 94 85 73 148 -20 59 -85 107 -206 151 -19 7 -19 8 5
27 14 11 42 27 63 35 59 26 87 66 87 128 0 53 -26 106 -52 106 -6 0 -25 11
-42 23 -44 34 -97 49 -144 41 -28 -4 -56 -1 -90 11 -60 22 -93 15 -135 -26
-27 -27 -29 -35 -25 -80 3 -29 14 -62 26 -78 21 -29 15 -51 -16 -51 -10 0 -12
-4 -4 -12 6 -7 8 -31 6 -53 -2 -22 -7 -63 -10 -91 -7 -65 14 -118 56 -142 65
-35 65 -37 41 -61 -54 -54 -76 -153 -47 -210 16 -29 136 -124 174 -135 29 -10
28 -22 -6 -43 -44 -29 -103 -86 -118 -115 -17 -32 -18 -86 -4 -124 15 -37 87
-122 111 -129 18 -6 15 -10 -20 -35 -54 -40 -91 -105 -91 -161 1 -58 26 -112
84 -176 l46 -51 -46 -23 c-62 -31 -92 -64 -105 -113 -17 -62 -7 -127 28 -183
17 -26 34 -62 38 -80 6 -32 6 -32 -48 -48 -61 -18 -83 -38 -121 -110 -38 -73
-41 -105 -17 -161 12 -27 28 -56 37 -65 13 -15 10 -17 -35 -23 -55 -7 -169
-54 -188 -77 -6 -8 -18 -42 -27 -76 -16 -60 -16 -65 4 -120 11 -32 21 -62 23
-68 1 -6 -34 -12 -83 -16 -47 -3 -98 -10 -113 -17 -16 -7 -42 -12 -58 -12 -30
0 -251 -91 -279 -115 -8 -7 -33 -18 -55 -25 -75 -25 -140 -58 -205 -106 -36
-27 -78 -55 -93 -62 -16 -7 -45 -25 -65 -41 -20 -16 -59 -36 -86 -45 -27 -8
-64 -27 -83 -42 -19 -14 -66 -41 -106 -59 -40 -18 -84 -42 -97 -52 -14 -11
-54 -27 -90 -37 -36 -10 -85 -28 -110 -41 -25 -13 -101 -44 -170 -68 -69 -25
-138 -50 -155 -56 -122 -44 -313 -101 -340 -101 -18 0 -52 -9 -76 -19 -24 -10
-66 -22 -94 -26 -27 -4 -54 -10 -60 -15 -17 -13 -107 -39 -160 -45 -134 -18
-282 -47 -332 -66 -41 -15 -158 -39 -238 -48 -38 -5 -92 -14 -120 -21 -27 -7
-131 -14 -230 -16 -99 -2 -261 -8 -360 -13 -99 -5 -183 -7 -188 -4 -8 5 -142
18 -344 32 -67 5 -126 12 -131 15 -5 3 -67 14 -138 25 -71 11 -145 26 -164 34
-19 8 -68 20 -109 26 -40 6 -82 16 -92 21 -10 6 -27 10 -38 10 -43 0 -326 150
-427 227 -17 12 -56 32 -88 43 -31 10 -69 26 -84 34 -41 23 -143 56 -173 56
-15 0 -61 9 -103 19 -62 16 -89 18 -139 10 -105 -15 -111 -13 -126 26 -24 68
-105 81 -210 33 -52 -23 -64 -16 -61 38 7 137 4 169 -20 212 -40 70 -119 103
-188 79 -23 -9 -23 -8 -16 39 4 26 7 71 8 99 0 48 -3 56 -49 109 -55 63 -80
74 -138 59 -37 -10 -38 -10 -33 11 3 11 11 48 17 81 11 55 10 66 -9 108 -16
35 -30 51 -59 64 -21 10 -39 18 -41 19 -2 1 4 16 12 33 40 76 6 174 -69 199
-22 7 -41 15 -43 17 -3 2 7 18 21 35 28 33 47 87 47 134 0 20 -11 39 -36 62
-19 19 -40 34 -45 34 -5 0 -9 9 -9 21 0 36 51 48 177 42 l112 -6 3 -96 c3 -88
5 -96 23 -97 11 -1 59 -2 107 -3 l88 -1 -7 -148 c-6 -144 -5 -149 16 -169 18
-17 36 -20 109 -21 48 0 186 -6 307 -11 121 -6 290 -11 376 -11 211 0 210 -1
225 213 l7 99 141 -3 141 -4 7 50 c3 28 7 71 7 97 l1 48 173 -3 172 -2 3 70
c1 39 5 81 8 94 l5 24 127 -6 c128 -6 160 -13 241 -56 24 -13 69 -27 100 -32
31 -5 71 -12 88 -15 46 -9 77 1 119 38 33 29 43 32 119 36 46 2 141 1 210 -3
l125 -7 0 -94 c0 -67 4 -96 13 -99 6 -2 63 -6 126 -7 l115 -3 -3 -106 -2 -107
53 -6 c29 -3 132 -8 228 -12 96 -3 176 -7 178 -9 2 -1 -4 -60 -13 -130 -22
-183 -16 -190 177 -200 62 -4 156 -11 208 -16 74 -8 423 -14 486 -10 7 1 22 9
35 19 20 17 23 32 33 162 l11 143 115 -3 c63 -1 185 -5 270 -9 85 -4 200 -7
255 -7 l100 1 6 130 c4 72 7 142 8 158 l1 27 139 0 139 0 7 85 7 85 117 -2
116 -3 3 33 c3 27 6 31 21 22 10 -5 67 -10 127 -11 60 0 132 -2 159 -2 28 -1
111 1 185 5 184 8 244 34 256 110 4 24 0 42 -18 68 -29 43 -111 89 -158 90
-20 0 -47 8 -60 17 -18 13 -42 17 -90 16 -36 -2 -130 -4 -210 -6 -80 -2 -157
-7 -172 -12 -28 -7 -28 -7 -28 38 0 24 3 59 6 76 l7 32 79 -2 c43 -1 81 0 83
3 3 3 8 59 12 126 l6 121 -24 5 c-13 3 -131 8 -262 11 -132 4 -246 8 -255 10
-10 1 -134 6 -277 10 -143 4 -267 8 -275 10 -8 1 -118 6 -245 9 -126 4 -275 9
-330 12 -55 2 -282 11 -505 19 -223 8 -547 20 -720 26 -173 6 -318 14 -322 18
-5 4 -12 43 -18 86 -7 58 -17 90 -37 120 -15 22 -33 50 -40 63 -7 12 -35 49
-64 82 -39 46 -64 64 -106 80 -30 11 -69 28 -86 37 -23 12 -62 18 -133 19
l-101 3 -84 -50 c-111 -65 -178 -138 -234 -254 -25 -51 -45 -107 -45 -124 0
-37 32 -35 -325 -21 -222 8 -371 14 -950 35 -82 3 -267 10 -410 15 -143 6
-282 10 -308 10 -36 0 -49 4 -54 18 -3 9 -19 31 -36 49 l-30 32 29 6 c50 10
77 29 112 78 59 81 55 188 -9 241 -36 31 -37 44 -1 52 44 11 101 43 112 63 25
48 -4 157 -49 181 -49 26 -180 4 -194 -32 -2 -7 -42 -29 -87 -48 -111 -47
-135 -78 -135 -171 0 -60 3 -71 32 -107 l32 -40 -51 -38 c-28 -22 -66 -54 -86
-72 -34 -32 -35 -34 -29 -93 4 -33 10 -71 13 -85 l7 -26 -204 8 c-112 4 -220
8 -239 8 l-35 1 -8 -70 c-4 -38 -6 -92 -5 -120 l3 -50 95 -5 95 -5 -4 -150
c-2 -82 -4 -151 -5 -152 -1 -1 -58 -6 -127 -11 -105 -7 -132 -12 -163 -32 -43
-26 -76 -73 -76 -109 0 -33 79 -111 113 -111 14 0 37 -4 51 -10 14 -5 104 -10
201 -12 151 -3 179 -5 192 -20 8 -10 31 -22 49 -28 19 -7 34 -17 34 -25 0 -7
-21 -32 -47 -56 -48 -44 -83 -91 -104 -141 -9 -23 -18 -28 -67 -34 -31 -4 -74
-13 -96 -20 -21 -8 -53 -14 -70 -14 -38 0 -163 -59 -191 -89 -22 -25 -25 -84
-6 -119 15 -28 74 -58 131 -66 46 -6 100 1 225 29 39 9 85 18 103 22 l32 6 0
-58 c0 -52 3 -60 34 -91 19 -19 41 -34 50 -34 9 0 16 -4 16 -10 0 -5 -15 -10
-33 -10 -19 0 -67 -17 -112 -40 -43 -22 -84 -40 -91 -40 -6 0 -34 -9 -62 -21
-40 -17 -58 -32 -87 -76 -51 -77 -58 -98 -40 -132 29 -56 127 -66 240 -25 39
14 92 32 118 39 26 7 54 18 60 24 8 6 18 6 27 1 8 -6 33 -10 56 -10 22 0 43
-3 47 -6 3 -4 -1 -24 -10 -46 -12 -30 -14 -57 -9 -115 10 -109 38 -153 107
-173 28 -8 42 -6 79 13 l45 23 0 -115 c0 -135 13 -181 58 -213 33 -24 89 -29
138 -15 24 8 25 7 21 -21 -6 -42 23 -135 53 -170 26 -31 125 -72 172 -72 32 0
31 -43 -2 -90 -14 -20 -32 -59 -39 -86 -8 -27 -28 -94 -45 -148 l-31 -100 12
-155 c7 -86 13 -185 12 -221 0 -71 -12 -98 -123 -270 -30 -47 -63 -105 -74
-129 -11 -25 -32 -62 -47 -83 -15 -21 -32 -57 -38 -81 -6 -24 -25 -61 -42 -82
-16 -21 -30 -42 -30 -48 0 -6 -21 -51 -46 -100 -48 -94 -104 -224 -104 -243 0
-6 -14 -37 -30 -68 -17 -31 -37 -89 -44 -129 -8 -39 -21 -90 -29 -112 -8 -22
-29 -80 -47 -130 -18 -49 -40 -106 -50 -125 -17 -33 -26 -61 -67 -209 -8 -30
-21 -64 -28 -75 -20 -31 -65 -210 -65 -257 0 -22 -5 -50 -11 -61 -10 -19 -36
-191 -44 -288 -3 -40 -20 -140 -35 -215 -6 -27 -8 -56 -5 -64 3 -7 0 -40 -7
-72 -9 -45 -9 -69 -1 -102 9 -32 9 -55 1 -86 -8 -32 -8 -60 2 -112 l13 -69
4867 0 4868 0 11 28 c16 40 19 323 3 402 -7 36 -17 110 -21 165 -5 55 -16 134
-25 175 -8 41 -18 102 -21 135 -6 58 -35 177 -76 314 -10 35 -19 76 -19 90 0
32 -77 278 -89 286 -5 3 -12 24 -16 48 -7 37 -50 140 -73 171 -4 6 -21 44 -36
84 -16 41 -54 113 -86 160 -31 48 -78 121 -104 162 -26 41 -57 89 -69 105 -12
17 -48 67 -80 113 -32 45 -62 82 -67 82 -4 0 -20 21 -35 48 -15 26 -63 80
-107 121 -44 41 -90 91 -103 111 -12 19 -63 71 -112 114 l-90 79 18 47 c10 25
27 62 38 81 17 30 20 53 21 179 2 156 -3 191 -31 231 -27 39 -59 117 -59 144
0 13 -6 25 -12 28 -7 2 -10 8 -5 12 4 5 16 -1 27 -13 12 -12 16 -22 10 -22 -6
0 -8 -5 -5 -10 4 -6 11 -7 17 -4 7 5 9 -4 6 -25 -4 -30 -4 -30 14 -14 18 16
19 16 8 -11 -9 -25 -8 -27 4 -17 11 9 15 5 20 -24 6 -30 10 -35 27 -30 23 8
22 -13 -1 -33 -13 -11 -12 -12 8 -7 23 7 29 -4 11 -22 -7 -7 -2 -10 20 -7 23
3 31 0 31 -12 0 -9 10 -24 22 -33 27 -22 33 -52 10 -44 -13 3 -13 1 2 -11 11
-9 25 -16 32 -16 6 0 14 -10 17 -21 4 -15 11 -20 23 -15 13 5 15 2 11 -13 -3
-14 -1 -18 9 -14 15 5 44 -13 44 -28 0 -5 -4 -9 -10 -9 -5 0 -10 7 -10 15 0 8
-4 15 -10 15 -13 0 -12 -11 4 -32 15 -21 32 -23 39 -5 4 9 6 9 6 0 1 -7 8 -13
17 -13 8 0 13 -4 9 -9 -3 -5 -1 -12 5 -16 5 -3 10 -12 10 -18 0 -7 -4 -6 -10
3 -7 10 -10 11 -10 2 0 -7 7 -15 15 -18 8 -4 15 -12 15 -20 0 -8 9 -14 19 -14
11 0 23 -5 26 -10 4 -6 12 -7 18 -3 7 4 6 -1 -2 -10 -8 -10 -11 -21 -7 -24 4
-4 11 -1 16 7 7 11 10 12 10 2 0 -8 5 -10 13 -6 6 4 4 -1 -5 -12 -12 -14 -14
-23 -7 -34 9 -13 10 -12 6 2 -3 9 0 19 7 21 16 6 40 102 63 247 14 91 17 237
20 1119 2 737 6 1018 14 1028 9 10 15 11 26 2 11 -10 13 -170 10 -1043 -4
-1098 -3 -1070 -53 -1296 -28 -126 -29 -140 -8 -141 18 0 17 -1 -1 -9 -17 -7
-14 -9 15 -10 21 -1 29 -4 20 -8 -17 -8 -25 -32 -10 -32 6 0 10 5 10 12 0 6 9
3 20 -7 11 -10 20 -23 19 -29 0 -6 -3 -6 -6 2 -2 6 -8 12 -13 12 -5 0 -2 -13
6 -30 16 -31 31 -42 20 -15 -6 17 9 21 19 5 4 -6 11 -8 16 -5 5 3 6 -1 3 -9
-4 -11 2 -19 19 -25 19 -8 24 -15 20 -35 -4 -17 -1 -26 7 -26 7 0 10 -7 6 -17
-4 -10 -4 -14 0 -10 12 11 34 -26 23 -40 -7 -7 -6 -14 2 -19 8 -4 9 -3 5 4 -4
7 -1 12 8 12 10 0 13 -6 9 -17 -4 -10 -2 -14 4 -10 7 4 16 -7 23 -28 6 -19 15
-35 20 -35 4 0 17 -18 29 -40 18 -34 19 -42 6 -46 -12 -5 -12 -8 0 -20 7 -8
19 -14 26 -14 7 0 4 6 -7 15 -10 8 -14 15 -7 15 6 0 15 -5 18 -10 4 -6 11 -7
17 -4 6 4 6 -2 -1 -15 -7 -11 -17 -21 -24 -22 -7 -1 -1 -4 13 -8 15 -4 24 -14
24 -24 -1 -9 1 -15 5 -12 4 2 19 -20 33 -51 14 -30 22 -57 17 -59 -9 -6 0 -37
14 -46 17 -12 169 -10 183 2 18 15 170 -26 178 -47 8 -20 -29 -39 -101 -54
-63 -13 -83 -9 -83 16 0 19 -115 20 -127 2 -13 -22 -12 -37 4 -31 10 4 14 0
13 -13 -4 -34 0 -38 15 -18 8 10 14 15 13 9 -1 -5 2 -29 6 -53 5 -28 12 -40
19 -35 7 3 3 -4 -8 -17 l-20 -23 27 5 c24 4 26 3 17 -13 -8 -15 -6 -19 6 -19
9 0 13 -5 10 -10 -4 -6 -12 -8 -18 -4 -7 3 -4 -1 5 -8 15 -13 15 -15 0 -26 -9
-7 -12 -10 -5 -7 6 3 22 1 35 -4 21 -9 21 -10 3 -12 -11 -1 -24 -1 -29 0 -5 1
-4 -5 3 -13 7 -9 16 -14 20 -12 6 4 38 -26 34 -31 -2 -2 -3 -4 -2 -5 8 -27 5
-36 -9 -31 -13 4 -12 0 4 -14 28 -25 47 -70 31 -77 -9 -3 -9 -5 1 -5 6 -1 12
-11 12 -24 0 -13 5 -28 12 -35 8 -8 8 -12 1 -12 -6 0 -14 -7 -17 -16 -4 -12
-2 -15 9 -10 9 3 15 0 15 -8 0 -8 5 -16 11 -18 9 -3 9 -10 0 -26 -13 -25 -6
-46 12 -35 7 4 6 -1 -2 -10 -12 -15 -12 -17 1 -12 10 4 15 0 15 -12 0 -34 3
-44 12 -39 4 3 6 -6 3 -19 -4 -21 -1 -24 14 -19 14 4 15 3 6 -3 -7 -6 -15 -26
-18 -46 -4 -31 -2 -35 16 -32 11 2 23 -1 26 -7 4 -7 2 -8 -4 -4 -8 5 -12 -2
-13 -21 -1 -28 -1 -28 -8 -3 -5 19 -8 21 -13 10 -3 -9 0 -24 8 -35 11 -15 11
-21 1 -34 -7 -9 -8 -12 -1 -8 13 7 37 -16 40 -39 1 -8 -3 -14 -9 -14 -8 0 -8
-3 -2 -8 6 -4 12 -14 14 -22 16 -65 18 -81 10 -86 -5 -3 -9 -10 -9 -15 0 -6 5
-7 11 -3 8 5 9 2 1 -11 -7 -14 -6 -23 5 -34 12 -11 13 -16 3 -19 -7 -3 -16 2
-21 9 -6 9 -7 1 -3 -21 8 -43 14 -51 14 -20 0 13 3 20 7 17 3 -4 13 -1 22 6
14 10 14 10 4 -4 -7 -8 -11 -25 -8 -38 2 -12 0 -19 -5 -16 -5 3 -11 1 -15 -5
-3 -5 1 -10 9 -10 9 0 16 -5 16 -11 0 -5 -5 -7 -11 -3 -8 5 -8 1 0 -14 14 -26
14 -45 1 -37 -5 3 -10 0 -10 -8 0 -10 7 -13 19 -10 10 3 22 0 25 -6 4 -6 1 -9
-6 -6 -10 4 -13 -8 -11 -52 1 -37 -2 -52 -8 -42 -6 10 -9 7 -9 -14 0 -16 4
-26 10 -22 6 3 10 -1 10 -10 0 -10 5 -14 13 -9 10 6 10 4 0 -7 -15 -15 -17
-33 -4 -25 5 4 7 -4 3 -16 -3 -13 -11 -27 -19 -31 -16 -10 -17 -27 -2 -27 5 0
7 5 4 10 -3 6 -1 10 5 10 7 0 9 -7 6 -16 -3 -8 -1 -24 4 -35 7 -12 7 -19 1
-19 -6 0 -8 -7 -5 -15 4 -8 1 -15 -5 -15 -6 0 -11 -9 -11 -21 0 -11 4 -18 9
-15 5 3 12 -1 15 -10 4 -12 2 -15 -9 -10 -18 7 -20 -8 -2 -26 16 -17 17 -58 1
-58 -7 0 -16 -5 -20 -12 -4 -7 -3 -8 5 -4 16 10 26 -23 11 -37 -10 -10 -11 -8
-6 8 6 17 5 18 -6 7 -11 -11 -10 -16 5 -26 16 -13 16 -14 -5 -29 -15 -11 -17
-15 -5 -11 9 4 17 1 17 -4 0 -6 -8 -13 -17 -15 -17 -4 -17 -5 0 -6 9 0 17 -5
17 -11 0 -5 -8 -14 -17 -19 -14 -8 -15 -10 -3 -11 13 0 13 -1 0 -10 -12 -7
-12 -10 -1 -10 9 0 11 -6 6 -17 -4 -10 -8 -24 -8 -30 0 -7 -7 -13 -14 -13 -8
0 -11 -4 -8 -10 3 -5 3 -15 -1 -21 -5 -8 -9 -8 -14 1 -5 8 -10 2 -14 -15 -4
-15 -5 -30 -1 -33 3 -3 5 1 5 10 0 8 6 15 14 15 17 0 10 -27 -12 -44 -13 -11
40 -13 271 -13 l287 0 0 6310 0 6310 -6310 0 -6310 0 0 -6310z m2202 5875 c5
-16 12 -124 16 -240 l7 -210 35 -11 c23 -8 36 -19 38 -33 3 -20 -1 -21 -86
-21 -67 0 -93 4 -102 15 -17 20 3 45 36 45 23 0 24 4 25 63 3 106 -3 352 -8
360 -2 4 -13 -3 -23 -15 -10 -13 -21 -20 -25 -16 -18 17 37 101 63 96 9 -2 20
-16 24 -33z m1251 -255 c57 -45 43 -145 -34 -246 -26 -34 -45 -65 -42 -68 4
-3 23 -6 42 -6 32 0 38 4 49 33 12 31 13 31 27 13 19 -26 19 -70 0 -86 -18
-15 -171 -6 -192 12 -21 17 -16 30 37 88 82 90 120 186 88 218 -18 18 -52 14
-82 -9 -31 -24 -41 -20 -31 11 8 25 61 60 91 60 12 0 33 -9 47 -20z m275 -103
c18 -14 15 -81 -8 -192 -20 -99 -21 -123 -1 -86 15 28 80 71 108 71 12 0 29
-8 38 -17 18 -17 17 -62 -1 -197 -6 -46 -6 -49 12 -42 41 17 54 18 54 4 0 -26
-46 -60 -76 -56 -48 5 -58 41 -39 139 8 45 15 90 15 101 0 19 -1 19 -31 1 -37
-22 -98 -111 -123 -178 -9 -28 -21 -60 -26 -72 -10 -24 -34 -31 -45 -13 -5 9
16 118 76 381 25 114 25 129 -4 129 -29 0 -62 23 -54 38 8 12 86 4 105 -11z
m-2480 -19 c14 -14 -2 -38 -27 -38 -10 0 -42 -46 -85 -123 -100 -175 -207
-347 -218 -347 -14 0 -27 45 -44 149 -50 314 -48 306 -74 309 -14 2 -29 8 -35
13 -18 18 18 29 98 29 62 0 79 -3 84 -16 6 -17 -15 -36 -31 -27 -5 4 -7 -10
-3 -34 8 -49 26 -222 29 -282 l3 -44 54 99 c30 54 76 136 102 181 43 75 45 82
27 86 -13 4 -18 12 -16 24 2 13 15 20 48 24 72 10 75 10 88 -3z m1675 -172
c48 0 57 -3 57 -18 0 -23 -30 -38 -78 -38 l-39 0 -27 -107 c-14 -60 -26 -113
-26 -120 0 -15 24 -7 63 20 38 26 57 9 31 -26 -37 -50 -104 -73 -132 -45 -20
20 -13 80 22 186 19 56 32 103 28 106 -4 2 -25 7 -47 10 l-40 7 -32 -114 c-50
-182 -84 -238 -133 -222 -13 4 -20 15 -20 32 0 18 4 24 15 19 9 -3 21 4 30 17
17 26 98 248 92 253 -7 8 -76 -47 -82 -66 -3 -11 -13 -20 -21 -20 -11 0 -13 6
-8 23 12 40 43 74 86 97 38 19 52 21 123 14 44 -4 106 -8 138 -8z m297 -21
c11 -13 5 -18 -38 -36 -56 -23 -67 -41 -113 -188 -13 -40 -30 -76 -37 -79 -32
-12 -33 16 -6 137 14 67 24 125 20 128 -4 4 -16 2 -26 -5 -26 -16 -40 -15 -40
2 0 19 39 46 66 46 12 0 27 -7 34 -15 10 -12 16 -13 26 -4 13 10 61 25 90 28
6 1 17 -6 24 -14z m-1442 -24 c8 -5 12 -17 10 -27 -3 -18 -16 -19 -191 -22
-163 -2 -188 0 -193 13 -4 9 -3 19 1 23 3 4 84 10 178 13 95 3 174 6 177 7 3
1 11 -2 18 -7z m667 -112 c5 -6 5 -13 -3 -21 -12 -12 -200 -13 -347 -2 -107 9
-108 9 -113 22 -4 14 69 18 283 13 94 -1 174 -7 180 -12z m-648 -45 c3 -8 1
-20 -4 -25 -13 -13 -299 -25 -338 -15 -25 6 -26 9 -13 22 15 15 141 30 281 33
53 1 69 -2 74 -15z m468 -108 c42 -18 55 -42 55 -104 0 -36 -7 -59 -26 -87
l-25 -38 20 -21 c111 -119 -13 -342 -174 -312 -43 8 -90 47 -104 87 -15 43 14
53 42 14 11 -15 35 -34 54 -41 114 -48 222 112 145 215 -18 25 -37 34 -94 46
-16 3 -28 12 -28 21 0 16 38 34 56 27 6 -2 23 1 38 7 47 17 66 96 33 138 -16
21 -69 13 -126 -18 -30 -17 -56 -28 -59 -25 -12 12 35 59 81 81 61 28 67 28
112 10z m6109 -165 c4 -5 -1 -8 -9 -7 -21 3 -31 16 -12 16 9 0 18 -4 21 -9z
m202 -33 c5 -7 3 -8 -6 -3 -10 6 -12 4 -6 -11 5 -14 4 -16 -5 -7 -6 6 -8 16
-5 22 9 14 13 14 22 -1z m104 -33 c0 -12 -29 -3 -34 10 -4 13 -2 14 14 5 11
-6 20 -13 20 -15z m-4968 -344 c8 12 9 12 6 0 -6 -22 -28 -25 -27 -4 0 12 2
14 6 4 5 -11 7 -11 15 0z m3395 -367 c-3 -3 -12 -4 -19 -1 -8 3 -5 6 6 6 11 1
17 -2 13 -5z m-110 -96 c-3 -8 -6 -5 -6 6 -1 11 2 17 5 13 3 -3 4 -12 1 -19z
m-44 -68 c-3 -11 -9 -17 -15 -14 -5 3 -4 12 3 20 16 19 18 18 12 -6z m-1414
-86 c4 3 8 -1 8 -8 0 -11 -4 -12 -19 -3 -10 7 -18 19 -18 27 1 12 3 11 11 -3
6 -9 14 -15 18 -13z m5731 -894 c39 -39 16 -123 -59 -217 -22 -29 -41 -54 -41
-56 0 -2 18 -4 40 -5 37 -2 39 0 46 33 7 39 18 44 34 16 15 -30 12 -66 -8 -84
-14 -13 -34 -16 -88 -14 -38 2 -75 6 -82 10 -23 15 -12 46 39 104 61 70 91
125 87 161 -2 22 -8 27 -28 24 -14 -1 -37 -11 -52 -22 -30 -22 -45 -12 -29 18
12 23 67 51 99 52 12 0 31 -9 42 -20z m191 -100 c22 0 29 -5 29 -20 0 -11 -6
-20 -13 -20 -9 0 -18 -27 -26 -82 -7 -46 -15 -90 -17 -99 -3 -9 17 5 44 32 38
38 56 49 80 49 60 0 67 -54 22 -167 -17 -42 -28 -78 -26 -81 3 -2 21 5 41 17
68 40 87 22 30 -28 -47 -41 -80 -49 -106 -25 -23 21 -20 47 17 130 24 55 31
104 15 104 -24 0 -101 -105 -131 -180 -30 -74 -49 -95 -65 -69 -7 10 -2 40 46
283 24 124 24 123 -6 130 -14 4 -25 10 -25 15 0 11 30 20 48 15 8 -2 27 -4 43
-4z m-447 -1159 c4 -5 -3 -7 -14 -4 -23 6 -26 13 -6 13 8 0 17 -4 20 -9z
m-5567 -1189 c39 -35 53 -56 58 -84 l7 -38 -115 0 c-198 0 -212 11 -124 98 44
43 85 68 117 71 3 0 28 -21 57 -47z m-2639 -448 l3 -122 125 -7 126 -7 -6 -42
c-3 -22 -5 -76 -5 -118 l-1 -78 -120 0 -120 0 0 125 0 124 -107 3 -108 3 -3
123 -3 123 108 -3 108 -3 3 -121z m517 -9 l0 -120 -130 0 -130 0 -3 109 c-1
61 0 116 2 123 4 11 34 13 133 11 l128 -3 0 -120z m7795 78 c0 -32 -11 -24
-14 11 -2 14 1 23 5 20 5 -3 9 -17 9 -31z m-5606 6 c8 -7 6 -21 -26 -129 -14
-50 -65 -141 -85 -153 -7 -4 -25 -19 -40 -33 -36 -33 -63 -30 -105 14 -58 58
-69 95 -62 204 3 51 7 98 9 105 4 14 293 6 309 -8z m860 -65 c13 -5 16 -26 16
-125 l0 -119 -110 0 -110 0 0 118 c0 65 3 122 7 125 8 9 176 9 197 1z m469
-11 c2 -5 2 -61 -1 -125 l-5 -118 -107 0 -107 0 -7 -46 c-3 -26 -6 -76 -6
-111 l0 -64 -107 3 -108 3 0 109 0 110 113 -3 112 -3 0 120 c0 65 3 122 7 125
9 10 211 9 216 0z m217 -260 c5 -4 6 -54 3 -111 l-6 -103 -106 3 -106 3 -3 99
c-1 55 0 106 3 114 4 12 23 14 106 9 56 -3 105 -9 109 -14z m-3762 -253 c-2
-71 -7 -132 -10 -136 -4 -3 -59 -3 -122 1 l-116 7 0 129 0 129 126 0 126 0 -4
-130z m3510 40 l35 0 -7 -127 c-3 -70 -10 -130 -14 -134 -4 -3 -53 -4 -109 -1
l-103 4 0 127 c0 70 3 131 8 135 4 5 40 5 81 2 41 -3 90 -6 109 -6z m4616
-432 c9 -35 7 -96 -3 -103 -14 -8 -18 3 -25 68 -6 46 -5 57 7 57 8 0 17 -10
21 -22z m-9779 -28 c3 -5 1 -10 -4 -10 -6 0 -11 5 -11 10 0 6 2 10 4 10 3 0 8
-4 11 -10z m9784 -193 c1 -19 -3 -27 -11 -25 -15 5 -23 52 -13 76 6 15 8 15
15 -3 5 -11 9 -33 9 -48z m-1 -138 c-2 -19 -7 -33 -13 -32 -12 3 -19 49 -10
71 10 26 27 -2 23 -39z m2 -150 c0 -48 -12 -65 -24 -33 -8 21 -8 79 0 87 15
14 24 -7 24 -54z m0 -155 c0 -44 -12 -58 -24 -28 -8 21 -8 69 0 77 14 14 24
-6 24 -49z m0 -139 c0 -25 -4 -45 -9 -45 -14 0 -22 62 -10 76 17 21 19 18 19
-31z m-700 1 c0 -3 -4 -8 -10 -11 -5 -3 -10 -1 -10 4 0 6 5 11 10 11 6 0 10
-2 10 -4z m700 -142 c0 -32 -4 -44 -12 -42 -14 5 -23 51 -14 74 11 30 26 12
26 -32z m0 -169 c0 -25 -4 -45 -10 -45 -11 0 -24 65 -15 79 14 24 25 9 25 -34z
m0 -162 c0 -24 -4 -43 -9 -43 -17 0 -29 89 -14 103 12 12 23 -17 23 -60z
m-9310 -29 c0 -2 -7 -4 -15 -4 -8 0 -15 4 -15 10 0 5 7 7 15 4 8 -4 15 -8 15
-10z m9314 -80 c8 -20 -3 -84 -14 -84 -11 0 -20 53 -13 79 6 25 18 27 27 5z
m-4 -200 c0 -44 -12 -58 -24 -28 -8 21 -8 69 0 77 14 14 24 -6 24 -49z
m-10170 -19 c7 -8 10 -31 8 -50 -3 -31 -1 -35 18 -35 28 0 42 -19 23 -31 -19
-12 -106 -11 -114 1 -3 6 3 22 14 36 21 27 29 70 12 59 -12 -7 -24 12 -16 25
9 15 41 12 55 -5z m392 -67 c-2 -32 0 -36 26 -41 50 -10 62 -75 23 -121 -13
-15 -25 -17 -65 -12 -27 3 -53 9 -58 14 -13 13 51 204 66 199 6 -2 10 -20 8
-39z m708 2 c7 -14 7 -20 0 -20 -5 0 -10 7 -10 16 0 8 -4 12 -10 9 -5 -3 -10
-1 -10 4 0 18 19 12 30 -9z m-880 -40 c0 -15 9 -22 30 -27 39 -7 37 -37 -2
-41 -21 -3 -27 -9 -30 -30 -4 -36 -32 -36 -36 1 -2 19 -11 31 -28 37 -31 12
-30 16 6 35 17 9 30 22 30 30 0 8 7 15 15 15 8 0 15 -9 15 -20z m538 -7 c2
-12 12 -23 23 -26 22 -6 26 -37 4 -37 -8 0 -15 -8 -15 -19 0 -42 -44 -47 -51
-6 -3 12 -14 21 -27 23 -29 4 -28 28 2 36 15 4 26 16 30 32 8 29 30 27 34 -3z
m9415 8 c6 -23 -3 -71 -13 -71 -7 0 -20 48 -20 76 0 21 27 17 33 -5z m-10373
-41 l0 -50 25 16 c20 13 23 19 14 36 -6 11 -8 27 -5 35 6 14 8 14 24 0 17 -15
19 -15 35 0 23 23 32 10 18 -26 -11 -25 -10 -33 5 -56 22 -34 5 -58 -25 -31
-18 16 -20 16 -39 -11 -17 -24 -22 -25 -36 -14 -9 8 -19 11 -23 8 -3 -4 -12
-2 -19 4 -9 7 -19 6 -36 -4 -38 -25 -68 -6 -68 42 0 58 39 101 91 101 l39 0 0
-50z m770 40 c0 -5 -5 -20 -11 -34 -9 -19 -8 -29 5 -47 31 -45 9 -92 -23 -50
l-17 22 -19 -20 c-38 -43 -63 -11 -29 37 11 16 14 34 10 58 -5 26 -4 34 8 34
8 0 16 -6 19 -12 3 -10 10 -8 23 5 20 19 34 22 34 7z m404 -3 c17 -13 16 -15
-20 -38 l-39 -24 38 -3 c41 -4 50 -24 17 -42 -29 -16 -91 -8 -104 12 -17 27 4
71 44 90 42 21 41 21 64 5z m9196 -173 c0 -24 -4 -44 -10 -44 -12 0 -24 65
-16 86 11 28 26 4 26 -42z m4 -120 c3 -9 6 -29 6 -46 0 -46 -24 -29 -28 20 -3
41 10 57 22 26z m-480 -49 c-4 -8 -10 -15 -15 -15 -4 0 -6 7 -3 15 4 8 10 15
15 15 4 0 6 -7 3 -15z m-9166 -43 c3 -36 6 -42 26 -42 51 0 78 -76 40 -114
-19 -20 -64 -21 -89 -2 -17 12 -19 25 -17 92 2 44 5 87 8 97 10 31 29 12 32
-31z m712 -55 c0 -7 -13 -18 -30 -24 -21 -8 -30 -18 -30 -33 0 -18 4 -21 25
-18 32 7 44 -11 20 -29 -66 -47 -128 35 -70 92 26 27 85 35 85 12z m8940 -32
c0 -45 -12 -60 -24 -29 -8 21 -8 59 1 67 16 16 23 4 23 -38z m-10050 -20 c7
-9 10 -27 7 -44 -6 -27 -3 -30 21 -33 16 -2 27 -9 27 -18 0 -23 -104 -21 -118
2 -9 13 -7 21 6 36 21 23 22 32 2 32 -15 0 -21 21 -8 33 12 12 50 7 63 -8z
m-215 -32 c-41 -96 -46 -194 -12 -231 20 -22 22 -42 4 -42 -22 0 -57 40 -64
71 -6 33 -32 38 -90 17 -45 -16 -68 -2 -68 42 0 24 7 38 26 52 25 19 28 19 58
4 17 -9 31 -23 31 -31 0 -8 2 -15 4 -15 2 0 11 -3 20 -6 12 -5 16 0 16 17 0
40 19 94 40 117 25 27 45 29 35 5z m431 -68 c5 -27 12 -35 36 -40 40 -9 35
-40 -7 -40 -23 0 -30 -5 -35 -25 -8 -33 -34 -32 -38 1 -2 17 -12 31 -28 38
-28 12 -24 31 7 31 13 0 19 7 19 21 0 27 19 61 30 54 5 -3 12 -21 16 -40z
m9828 -10 c7 -28 -2 -75 -14 -75 -4 0 -11 15 -14 34 -11 56 15 93 28 41z
m-9344 4 c0 -6 -9 -24 -20 -40 -16 -22 -19 -33 -10 -48 5 -11 10 -27 10 -35 0
-23 -27 -20 -41 5 -11 21 -11 21 -40 -7 -38 -36 -47 -25 -19 24 21 37 21 41 6
71 -14 26 -14 31 -2 31 8 0 22 -7 31 -16 15 -16 18 -15 43 4 31 24 42 27 42
11z m145 -8 c4 -13 17 -21 38 -23 39 -4 38 -20 -2 -31 -20 -5 -31 -15 -33 -29
-4 -29 -28 -35 -35 -9 -3 14 -13 21 -29 21 -32 0 -31 28 0 36 15 3 27 15 30
30 8 29 22 31 31 5z m-942 -33 c-20 -20 -21 -23 -7 -50 13 -25 13 -29 -1 -34
-9 -4 -24 1 -34 10 -13 12 -21 14 -26 7 -3 -6 -10 -11 -16 -11 -13 0 -11 34 3
48 10 10 10 17 0 32 -10 17 -10 21 3 26 8 4 21 2 28 -4 8 -7 18 -6 31 4 31 22
46 -1 19 -28z m561 -7 c16 -3 31 -12 34 -19 3 -10 -17 -12 -92 -10 -95 3 -129
17 -71 29 38 8 92 8 129 0z m9580 -87 c12 -31 7 -74 -9 -74 -11 0 -15 12 -15
45 0 45 12 60 24 29z m-9600 -80 c10 -4 16 -18 16 -39 0 -27 5 -34 26 -39 40
-10 22 -31 -27 -31 -24 0 -54 -6 -67 -13 -30 -17 -60 -7 -68 23 -8 31 10 62
49 85 34 21 46 24 71 14z m-42 -333 c-2 -39 -1 -41 22 -35 35 8 66 -26 66 -73
0 -44 -6 -56 -37 -71 -16 -9 -31 -9 -60 1 l-38 13 2 59 c4 80 22 157 37 152 6
-2 10 -21 8 -46z m-657 -111 c13 -15 16 -28 11 -56 -7 -36 -7 -36 23 -29 39 8
43 -16 6 -33 -32 -15 -102 -16 -110 -2 -4 6 5 24 19 41 29 34 34 59 11 59 -18
0 -19 12 -3 28 16 16 22 15 43 -8z m441 -65 c20 -30 13 -81 -16 -118 -11 -14
-20 -28 -20 -31 0 -11 38 -6 42 6 7 19 28 -1 28 -27 0 -29 -11 -33 -87 -27
-72 5 -82 21 -37 63 31 29 54 71 54 99 0 26 -26 26 -33 -1 -7 -26 -27 -16 -27
15 0 50 67 65 96 21z m-207 -65 c60 -1 66 -33 7 -44 -25 -5 -36 -13 -40 -31
-8 -33 -36 -33 -36 0 0 18 -5 25 -19 25 -10 0 -24 7 -31 15 -11 13 -8 16 19
21 20 4 31 12 31 24 0 28 14 33 29 11 8 -12 24 -21 40 -21z m-372 5 c5 -14 7
-14 23 0 22 20 36 4 19 -23 -9 -14 -8 -25 4 -48 10 -20 12 -35 6 -45 -8 -11
-13 -10 -30 11 l-21 25 -18 -23 c-10 -12 -21 -22 -24 -22 -12 0 -6 36 10 59
13 18 14 28 5 47 -14 32 -14 34 4 34 9 0 18 -7 22 -15z m1068 -5 c3 -6 17 -7
31 -4 25 6 32 -4 13 -23 -8 -8 -6 -18 6 -37 10 -14 21 -26 25 -26 4 0 5 -11 2
-25 -6 -34 -27 -32 -48 5 -18 29 -18 29 -36 10 -18 -20 -48 -27 -48 -12 0 4 9
21 20 37 14 20 18 39 14 58 -5 26 8 38 21 17z m9659 -25 c3 -8 1 -15 -3 -15
-5 0 -11 7 -15 15 -3 8 -1 15 3 15 5 0 11 -7 15 -15z m-9776 -21 c34 -10 20
-29 -19 -27 -19 1 -99 4 -179 8 -134 5 -184 16 -128 29 31 6 297 -1 326 -10z
m-186 -91 c24 -21 23 -74 -2 -123 -11 -22 -16 -40 -11 -40 5 0 13 9 16 21 9
28 29 19 33 -15 5 -42 -13 -56 -75 -56 -70 0 -77 17 -30 69 37 41 57 105 39
123 -7 7 -17 3 -31 -11 -12 -12 -23 -21 -26 -21 -12 0 -4 35 12 52 20 22 51
23 75 1z m158 -82 c5 -11 10 -29 10 -40 0 -15 6 -21 21 -21 14 0 19 -5 17 -17
-3 -13 -13 -18 -40 -18 -20 0 -40 -3 -44 -7 -11 -12 -49 -9 -62 4 -19 19 -14
54 14 87 30 36 68 41 84 12z m-330 -346 c0 -54 0 -55 30 -55 40 0 70 -31 70
-73 0 -42 -15 -57 -60 -57 -62 0 -75 18 -72 97 3 90 12 143 23 143 5 0 9 -25
9 -55z m222 -122 c32 -54 51 -143 44 -206 -6 -64 -33 -134 -59 -155 -29 -25
-37 -4 -16 44 32 71 36 177 10 262 -25 82 -25 82 -8 82 7 0 20 -12 29 -27z
m-772 8 c0 -5 -7 -11 -14 -14 -21 -8 -46 -100 -46 -168 0 -75 24 -146 63 -186
27 -28 28 -33 13 -39 -26 -10 -67 25 -95 81 -42 82 -31 233 21 308 18 25 58
38 58 18z m290 -97 c0 -21 4 -24 40 -24 51 0 55 -25 5 -34 -29 -6 -35 -11 -35
-31 0 -32 -18 -32 -29 -1 -5 13 -19 26 -30 29 -27 7 -27 27 -1 27 15 0 20 7
20 28 0 16 3 32 6 35 12 11 24 -3 24 -29z m-140 21 c0 -3 -9 -24 -21 -46 l-20
-41 27 -39 c36 -52 21 -72 -25 -34 l-31 27 -18 -23 c-29 -34 -45 -16 -24 27
15 33 15 37 -1 66 -9 16 -17 34 -17 39 0 17 28 9 42 -13 l15 -23 28 33 c24 29
45 41 45 27z m556 -49 c18 -14 18 -15 -9 -25 -35 -13 -294 -15 -302 -2 -9 16
17 25 95 32 136 11 195 10 216 -5z m-171 -133 c25 -24 15 -93 -20 -139 l-27
-35 38 3 c32 2 40 7 42 26 4 30 30 28 42 -3 19 -50 -13 -75 -96 -75 -53 0 -84
14 -84 38 0 9 16 37 35 61 36 45 49 106 21 95 -20 -8 -30 14 -16 31 16 20 45
19 65 -2z m10502 -129 c-3 -3 -12 -4 -19 -1 -8 3 -5 6 6 6 11 1 17 -2 13 -5z
m-10173 -115 c-3 -5 -10 -7 -15 -3 -5 3 -7 10 -3 15 3 5 10 7 15 3 5 -3 7 -10
3 -15z m6267 -120 l70 -51 -213 -120 c-117 -65 -223 -126 -235 -134 -12 -8
-27 -14 -34 -14 -6 0 -81 42 -167 93 -87 52 -185 109 -219 128 -35 19 -63 39
-62 44 1 15 87 84 115 91 18 5 56 -13 168 -80 79 -47 150 -86 156 -86 13 0
191 93 280 147 30 18 58 33 63 33 4 0 39 -23 78 -51z m-6301 -533 c0 -2 -7 -7
-16 -10 -8 -3 -12 -2 -9 4 6 10 25 14 25 6z"/>
<path d="M1647 3679 c-23 -13 -22 -39 2 -39 21 0 33 21 22 38 -4 7 -12 7 -24
1z"/>
<path d="M986 3688 c-10 -15 -16 -35 -14 -45 3 -15 6 -14 22 9 10 15 16 35 14
45 -3 15 -6 14 -22 -9z"/>
<path d="M1797 3254 c-11 -11 -8 -44 3 -44 15 0 24 30 13 41 -5 5 -12 6 -16 3z"/>
<path d="M990 3075 c-8 -9 -8 -15 -2 -15 12 0 26 19 19 26 -2 2 -10 -2 -17
-11z"/>
<path d="M1770 2855 c-20 -24 -6 -28 15 -5 10 11 13 20 8 20 -6 0 -16 -7 -23
-15z"/>
<path d="M1795 2470 l-16 -31 28 3 c22 2 28 8 28 27 0 36 -22 37 -40 1z"/>
<path d="M1862 2093 c-18 -32 -16 -51 4 -31 9 8 14 24 12 34 -4 18 -5 17 -16
-3z"/>
<path d="M1607 1673 c-14 -14 -7 -43 11 -43 26 0 33 10 21 31 -10 20 -21 24
-32 12z"/>
<path d="M10430 11810 c-41 -4 -137 -8 -212 -9 -345 -3 -784 -105 -998 -232
-186 -110 -219 -219 -99 -323 308 -265 1253 -379 2036 -246 471 80 788 248
759 402 -14 73 -116 159 -268 224 -94 40 -285 98 -382 115 l-65 11 -208 -144
c-114 -79 -243 -166 -286 -193 -64 -41 -79 -56 -87 -85 -29 -105 -166 -133
-219 -46 -47 77 -18 153 70 176 29 8 48 7 81 -5 39 -13 45 -13 65 3 12 9 112
85 222 168 l200 152 -47 6 c-189 24 -459 37 -562 26z m670 -301 c0 -18 1 -18
24 -4 15 10 40 15 63 13 31 -2 39 -7 41 -25 3 -21 -1 -23 -37 -23 -36 0 -44
-4 -65 -37 -14 -21 -37 -69 -53 -108 -30 -76 -41 -89 -59 -74 -13 11 -12 17
22 138 13 47 22 86 20 89 -3 2 -18 -4 -35 -14 -63 -37 -41 17 23 57 33 20 56
15 56 -12z"/>
<path d="M11939 11174 c-38 -41 -147 -109 -234 -147 -207 -91 -452 -148 -810
-189 -149 -17 -705 -17 -850 0 -446 54 -752 140 -932 263 -23 16 -45 29 -49
29 -9 0 2 -179 13 -206 8 -20 33 -31 33 -14 0 5 5 10 10 10 7 0 7 -6 0 -19
-10 -19 1 -37 14 -24 4 4 15 8 26 10 14 2 18 -2 14 -12 -4 -8 -10 -12 -15 -9
-5 3 -9 1 -9 -4 0 -6 7 -13 16 -16 8 -3 12 -2 9 3 -3 5 -1 12 5 16 5 3 10 1
10 -5 0 -7 7 -9 16 -6 14 5 15 4 5 -7 -9 -12 -4 -16 30 -21 35 -6 39 -9 29
-21 -10 -12 -10 -18 0 -30 14 -17 30 -20 30 -4 0 5 -4 8 -9 5 -5 -3 -12 1 -15
10 -4 10 -2 14 6 10 7 -3 21 -9 31 -12 9 -4 17 -11 17 -16 0 -5 6 -6 13 -2 6
4 3 -3 -8 -17 -14 -17 -15 -20 -3 -10 19 14 42 6 32 -11 -4 -6 -2 -8 4 -4 12
7 44 -33 36 -46 -3 -5 0 -7 8 -6 7 2 12 -2 11 -8 -1 -7 5 -11 15 -10 9 0 17
-6 17 -14 0 -10 8 -14 23 -12 26 4 30 -14 5 -21 -10 -3 -2 -5 17 -6 23 -1 30
-4 22 -10 -10 -6 -10 -10 3 -21 12 -10 15 -10 15 2 0 8 7 15 15 15 8 0 13 -3
10 -5 -3 -3 5 -16 17 -29 19 -21 20 -26 8 -34 -12 -8 -11 -9 5 -7 11 1 26 -1
33 -5 6 -5 12 -6 12 -3 0 3 9 -2 20 -11 14 -12 16 -20 9 -30 -6 -7 -9 -18 -6
-25 3 -8 6 -5 6 6 1 15 4 16 16 6 8 -7 12 -17 8 -23 -3 -6 -1 -7 5 -3 13 8 35
-28 24 -39 -4 -5 1 -5 11 -2 9 4 18 2 18 -3 1 -6 3 -14 4 -20 1 -5 3 -13 4
-17 1 -5 5 -2 10 5 6 10 10 7 13 -12 3 -14 1 -26 -4 -26 -5 0 -7 -4 -3 -9 3
-6 14 -8 25 -6 14 3 17 -1 13 -13 -3 -9 -3 -14 1 -10 10 8 36 -14 29 -24 -2
-5 5 -8 16 -8 12 0 21 -6 21 -13 0 -7 9 -20 20 -30 11 -9 20 -25 20 -34 0 -12
-6 -8 -19 13 -11 18 -25 35 -31 39 -9 6 -10 4 -4 -6 5 -8 20 -31 33 -51 12
-21 28 -38 34 -38 7 0 5 5 -3 10 -11 7 -12 12 -3 21 9 9 13 6 19 -14 3 -15 10
-25 14 -22 4 3 14 -3 21 -12 10 -12 10 -14 2 -9 -7 4 -13 3 -13 -2 0 -5 11
-15 25 -22 14 -7 25 -18 24 -24 -3 -25 2 -36 16 -36 8 0 15 -5 15 -11 0 -5 -5
-7 -12 -3 -7 4 -8 3 -4 -5 4 -6 11 -9 16 -6 5 3 11 1 15 -5 3 -5 1 -10 -4 -10
-18 0 -13 -15 17 -47 15 -16 33 -28 39 -26 13 5 46 -21 37 -29 -2 -3 2 -11 10
-17 8 -7 12 -19 9 -27 -4 -10 0 -12 11 -8 9 3 16 2 16 -4 0 -6 -5 -12 -12 -14
-8 -3 -8 -9 1 -24 12 -18 12 -18 7 0 -6 16 -4 17 9 6 8 -7 15 -9 15 -4 1 5 7
-2 15 -16 10 -18 10 -29 3 -38 -9 -10 -6 -14 10 -18 21 -6 39 -34 22 -34 -5 0
-7 -7 -3 -16 3 -9 8 -12 12 -5 4 6 12 6 20 2 7 -5 10 -14 7 -20 -4 -6 -2 -11
4 -11 7 0 9 -8 5 -20 -4 -14 -2 -20 8 -20 13 0 46 -29 45 -40 0 -3 5 -16 10
-30 6 -14 13 -34 16 -44 6 -18 15 -19 160 -12 465 20 968 132 1292 288 l69 33
7 240 c10 351 27 815 38 1009 6 93 9 171 7 173 -2 1 -14 -9 -28 -23z m-2484
-486 c5 4 5 1 1 -5 -10 -18 -23 -16 -30 3 -5 13 -4 14 7 6 8 -7 18 -8 22 -4z
m21 -27 c-4 -5 -1 -11 6 -13 8 -3 6 -6 -4 -10 -11 -5 -15 -2 -13 10 5 23 4 22
11 22 3 0 3 -4 0 -9z m628 -718 c8 -20 -8 -21 -26 -2 -16 17 -16 18 2 16 11
-1 22 -7 24 -14z m320 -471 c3 -5 -1 -9 -9 -9 -8 0 -15 4 -15 9 0 4 4 8 9 8 6
0 12 -4 15 -8z"/>
<path d="M3935 10820 c-4 -6 -11 -8 -16 -5 -5 4 -9 -1 -9 -9 0 -14 3 -14 20
-4 11 7 20 16 20 20 0 11 -8 10 -15 -2z"/>
<path d="M3860 10820 c-1 -3 -3 -16 -6 -30 -3 -21 -2 -22 7 -7 6 10 8 23 5 30
-2 7 -5 10 -6 7z"/>
<path d="M9216 10808 c3 -4 12 -8 20 -8 8 0 14 4 14 8 0 4 -9 8 -19 8 -11 0
-17 -4 -15 -8z"/>
<path d="M7506 10794 c-5 -14 -4 -15 9 -4 17 14 19 20 6 20 -5 0 -12 -7 -15
-16z"/>
<path d="M3775 10766 c-18 -7 -25 -15 -18 -19 6 -4 14 -3 18 3 4 6 10 8 15 5
4 -3 10 2 14 10 3 8 4 15 3 15 -1 -1 -15 -7 -32 -14z"/>
<path d="M7434 10748 c-16 -12 -31 -23 -33 -25 -2 -2 -2 -6 2 -9 3 -4 13 1 22
10 9 9 22 13 28 9 7 -3 9 -3 5 2 -4 4 -3 14 3 22 17 19 6 16 -27 -9z"/>
<path d="M9372 10696 c7 -8 15 -12 17 -11 5 6 -10 25 -20 25 -5 0 -4 -6 3 -14z"/>
<path d="M4786 10648 c3 -4 9 -8 15 -8 5 0 9 4 9 8 0 5 -7 9 -15 9 -8 0 -12
-4 -9 -9z"/>
<path d="M8136 10590 c-64 -20 -83 -60 -96 -205 -8 -95 -31 -268 -36 -273 -4
-6 -56 29 -97 65 -61 54 -141 39 -196 -38 -27 -37 -31 -50 -31 -108 0 -36 7
-88 15 -115 8 -27 15 -62 15 -78 l0 -28 -37 18 c-21 11 -61 25 -90 32 -63 16
-114 1 -147 -43 -18 -25 -21 -42 -20 -145 0 -64 4 -132 8 -149 9 -41 -4 -43
-46 -8 -33 28 -115 55 -166 55 -73 0 -112 -84 -99 -215 3 -28 3 -76 0 -107
l-6 -58 -44 0 c-91 0 -141 -46 -158 -146 -4 -30 -19 -55 -54 -93 -26 -28 -50
-51 -54 -51 -3 0 -38 33 -76 73 -66 68 -72 72 -114 72 -31 0 -52 -6 -67 -20
-24 -21 -70 -113 -70 -139 0 -9 -2 -16 -5 -16 -9 0 -81 50 -105 74 -37 35 -68
48 -100 41 -39 -9 -106 -84 -120 -135 -6 -22 -17 -43 -25 -46 -18 -7 -115 38
-138 64 -63 70 -174 43 -193 -47 -17 -80 -43 -101 -78 -62 -19 21 -71 48 -117
61 -20 6 -38 3 -63 -10 -44 -22 -123 -17 -128 9 -2 9 2 50 10 91 7 41 14 109
15 152 2 69 0 79 -23 103 -39 42 -78 58 -127 52 -24 -2 -52 -12 -62 -21 -26
-24 -29 -21 -23 33 5 54 -12 141 -36 183 -20 35 -81 68 -126 68 -47 0 -101
-23 -118 -49 -7 -12 -15 -21 -18 -21 -3 0 -5 56 -5 124 0 141 -8 161 -81 204
-62 36 -125 12 -154 -58 -6 -15 -24 -37 -40 -48 l-29 -22 -6 30 c-4 16 -11 32
-16 35 -5 4 -9 32 -9 63 -1 31 -7 102 -14 156 -15 112 -27 130 -103 155 -73
24 -118 -4 -169 -104 -15 -30 -30 -55 -34 -55 -15 0 -50 62 -50 88 0 16 -11
50 -25 76 -14 26 -25 53 -25 60 0 19 -58 127 -83 154 -24 26 -72 29 -105 6
-12 -8 -34 -38 -48 -66 -24 -48 -25 -55 -15 -107 12 -55 10 -255 -2 -267 -3
-3 -23 12 -45 35 -36 38 -43 41 -94 41 -40 0 -60 -5 -75 -20 -42 -39 -41 -52
16 -210 34 -92 44 -220 19 -220 -7 0 -44 12 -83 26 -119 43 -138 47 -185 34
-23 -6 -54 -23 -67 -36 -21 -21 -25 -32 -20 -64 3 -22 15 -53 26 -69 12 -17
37 -61 56 -98 58 -114 42 -173 -39 -139 -36 15 -122 30 -151 27 -49 -5 -87
-98 -65 -157 6 -15 35 -59 64 -98 54 -72 83 -137 71 -156 -8 -14 -53 -6 -121
22 -64 26 -114 19 -144 -19 -29 -37 -25 -61 20 -134 42 -66 90 -162 90 -179 0
-16 -42 -12 -114 10 -55 17 -73 19 -106 10 -66 -18 -79 -70 -30 -116 16 -16
35 -41 41 -56 6 -15 15 -28 20 -28 5 0 16 -11 25 -26 22 -33 8 -48 -32 -32
-38 14 -77 5 -104 -24 -32 -34 -25 -59 33 -116 42 -42 67 -57 118 -72 35 -11
74 -20 86 -20 33 0 78 44 102 100 21 49 21 54 7 105 -20 65 -20 65 0 65 9 0
28 6 42 13 15 8 41 20 57 28 41 20 57 73 53 176 -3 83 -3 83 25 92 45 16 115
80 126 114 16 56 20 111 10 157 -5 25 -11 51 -12 59 -1 9 11 18 31 23 70 19
96 41 135 118 35 68 38 80 33 131 -3 31 -8 62 -11 71 -5 12 8 18 57 28 85 18
111 32 152 86 38 50 42 62 51 177 l7 78 46 23 c26 13 55 33 66 45 l19 20 44
-26 c46 -27 112 -34 179 -19 30 7 32 5 37 -26 20 -121 51 -183 112 -223 41
-27 63 -28 153 -10 31 7 32 6 32 -26 0 -92 46 -161 136 -205 46 -22 62 -25
104 -20 44 6 50 4 50 -11 0 -72 90 -202 154 -223 28 -9 31 -14 31 -52 0 -27 8
-54 21 -73 29 -43 53 -111 47 -135 -3 -12 -22 -29 -43 -40 -40 -20 -70 -69
-70 -113 0 -34 -14 -42 -80 -43 -30 -1 -65 -2 -77 -3 -27 -1 -79 -45 -99 -83
-18 -35 -20 -153 -4 -203 11 -34 35 -50 61 -40 18 7 46 68 54 117 5 33 10 39
45 49 33 10 43 9 66 -6 36 -24 88 -23 115 1 11 10 40 26 62 35 33 13 47 26 64
61 19 40 26 46 61 52 22 3 45 13 52 21 7 8 25 15 40 15 71 0 164 53 186 106
14 33 14 33 47 20 17 -8 55 -19 84 -26 46 -10 57 -9 100 10 26 11 58 33 69 48
19 23 25 25 45 15 53 -27 103 -43 131 -43 62 0 142 32 182 72 35 35 42 38 75
32 20 -4 50 -13 68 -21 18 -7 45 -13 60 -13 31 1 139 34 158 50 7 6 33 5 76
-4 35 -8 57 -16 49 -18 -104 -33 -149 -53 -180 -81 -54 -47 -60 -60 -66 -142
-5 -64 -3 -80 14 -109 l20 -33 -49 -29 c-43 -25 -85 -74 -134 -156 -5 -10 -23
-35 -39 -57 -36 -51 -30 -86 17 -106 27 -11 36 -11 59 1 15 8 33 14 41 14 8 0
20 6 26 13 6 8 29 19 51 26 22 6 47 22 55 35 9 13 39 31 71 42 70 23 99 52
137 132 35 75 32 115 -15 167 -16 19 -28 35 -27 35 2 1 50 9 106 19 114 20
167 48 204 108 31 50 23 120 -19 168 -18 20 -32 38 -32 40 0 11 25 62 38 77 9
10 20 38 27 63 l11 46 70 3 c85 4 134 24 164 66 23 32 25 43 38 170 l7 75 86
1 c71 0 93 5 129 25 63 34 82 73 84 167 0 42 -3 90 -8 106 -8 26 -7 27 10 18
11 -5 53 -13 95 -16 l75 -7 58 46 c31 26 61 57 65 69 5 11 9 52 10 91 1 38 4
71 6 73 3 3 31 -1 63 -8 52 -11 64 -10 93 5 54 27 106 96 120 162 15 71 16 72
35 45 19 -28 105 -72 139 -72 36 0 79 24 103 57 l20 28 -5 -96 c-6 -122 11
-161 93 -216 46 -30 63 -36 105 -35 27 0 63 7 78 15 28 14 29 14 34 -11 3 -15
3 -50 0 -80 -6 -52 -4 -55 50 -136 79 -115 87 -121 161 -120 l62 1 -10 -56
c-28 -149 -1 -234 94 -295 52 -33 70 -39 118 -40 49 -1 65 4 107 31 58 38 65
30 41 -45 -26 -79 -30 -147 -14 -195 9 -23 21 -61 28 -83 11 -38 18 -44 71
-67 58 -25 59 -26 53 -59 -3 -18 -10 -46 -15 -61 -4 -15 -6 -64 -2 -109 8
-109 26 -130 131 -154 42 -10 84 -23 92 -30 8 -6 30 -19 48 -28 17 -9 32 -20
32 -24 0 -4 -25 -40 -55 -81 -64 -86 -72 -109 -54 -152 17 -42 59 -59 124 -50
81 11 152 70 221 182 28 45 36 70 41 125 6 79 -5 110 -58 164 -32 31 -32 32
-21 81 10 41 9 56 -4 89 -24 58 -66 90 -120 90 -24 0 -44 2 -44 4 0 2 7 23 15
46 19 54 19 133 0 169 -18 35 -100 73 -172 79 -62 5 -65 14 -33 107 38 110 18
203 -59 287 l-49 53 -96 -2 c-53 -1 -105 -7 -117 -13 -28 -16 -30 -11 -11 35
9 24 17 81 19 145 4 97 2 108 -19 140 -37 55 -79 74 -167 74 -42 1 -84 -3 -93
-8 -15 -7 -18 -3 -18 21 0 39 -38 210 -51 231 -6 10 -36 34 -67 55 -64 43
-100 46 -155 17 l-37 -20 5 42 c4 24 8 53 11 66 5 24 -12 129 -28 173 -14 38
-99 118 -133 124 -24 5 -43 -2 -93 -35 -34 -22 -73 -57 -86 -78 -38 -61 -52
-68 -71 -38 -9 14 -23 50 -31 81 -19 73 -66 175 -90 197 -21 19 -103 58 -119
57 -5 0 -23 -5 -39 -9z"/>
<path d="M5070 10480 c0 -5 5 -10 10 -10 6 0 10 5 10 10 0 6 -4 10 -10 10 -5
0 -10 -4 -10 -10z"/>
<path d="M5175 10400 c3 -5 8 -10 11 -10 2 0 4 5 4 10 0 6 -5 10 -11 10 -5 0
-7 -4 -4 -10z"/>
<path d="M3286 10383 c-6 -14 -5 -15 5 -6 7 7 10 15 7 18 -3 3 -9 -2 -12 -12z"/>
<path d="M7047 10321 c-4 -17 -3 -21 5 -13 5 5 8 16 6 23 -3 8 -7 3 -11 -10z"/>
<path d="M3220 10313 c0 -10 4 -14 8 -8 4 6 11 13 16 18 5 4 2 7 -7 7 -10 0
-17 -8 -17 -17z"/>
<path d="M5298 10303 c7 -3 16 -2 19 1 4 3 -2 6 -13 5 -11 0 -14 -3 -6 -6z"/>
<path d="M2085 10198 c-11 -32 -218 -473 -365 -773 -67 -137 -160 -326 -205
-420 -45 -93 -151 -309 -235 -480 -333 -678 -530 -1083 -530 -1091 0 -2 23 10
50 27 63 39 100 35 100 -10 0 -25 -11 -37 -84 -86 -107 -72 -165 -133 -211
-225 l-36 -72 27 -46 c34 -59 143 -167 223 -221 142 -97 400 -202 601 -244
118 -26 140 -27 140 -11 0 20 17 18 29 -3 10 -17 10 -17 11 0 0 10 -7 20 -15
23 -11 5 -14 24 -11 100 1 51 8 99 14 107 6 7 9 23 5 35 -3 14 0 24 9 27 9 4
13 19 11 45 -1 22 2 38 6 36 10 -6 7 31 -3 41 -4 5 -6 2 -4 -6 2 -7 -4 -16
-12 -18 -13 -4 -13 -3 0 6 8 6 12 11 7 11 -4 0 0 11 9 24 8 14 15 28 14 31 -1
4 2 10 6 13 4 4 4 1 -1 -7 -6 -10 -4 -12 4 -7 9 6 9 11 1 21 -7 8 -9 19 -5 25
3 5 8 19 10 31 2 12 11 26 18 33 16 12 33 71 18 62 -16 -11 -18 18 -3 54 8 19
16 46 18 60 2 14 8 26 13 28 5 2 7 10 4 18 -4 10 0 12 13 7 18 -6 18 -5 -1 17
-11 13 -14 20 -7 16 7 -4 12 -2 13 6 1 24 9 62 15 67 3 3 3 -11 1 -32 -2 -20
0 -34 5 -31 5 3 8 11 7 17 -1 7 -1 23 1 37 1 23 2 23 10 5 8 -19 9 -19 9 3 1
12 -3 22 -9 22 -18 0 -10 19 11 25 20 7 20 7 2 21 -14 11 -14 13 -2 8 21 -7
33 24 18 42 -9 12 -9 13 3 9 10 -4 17 1 21 14 4 18 3 19 -16 9 -21 -11 -21
-10 -4 9 9 11 14 23 10 28 -5 4 -3 6 2 2 6 -3 17 -2 25 4 10 6 11 9 3 9 -7 0
-13 5 -13 11 0 5 4 8 9 4 6 -3 15 4 21 16 8 15 9 19 1 15 -6 -4 -11 -3 -11 2
0 6 7 13 16 16 9 3 14 13 11 20 -3 8 -1 17 6 20 9 3 8 8 -3 16 -12 10 -11 11
8 7 23 -5 31 8 10 15 -10 4 -8 9 3 21 9 9 20 13 25 9 5 -4 2 1 -5 11 -12 14
-11 17 3 17 9 0 16 5 16 11 0 5 -4 7 -10 4 -5 -3 -10 -1 -10 4 0 6 4 11 10 11
5 0 7 6 4 13 -2 7 5 23 16 35 11 12 17 22 13 22 -4 0 -2 5 5 12 7 7 12 22 12
35 0 26 10 29 29 11 11 -11 11 -9 1 8 -10 17 -9 27 10 63 12 24 19 45 16 48
-3 3 1 11 8 19 11 10 14 89 15 381 1 202 3 420 6 483 3 63 7 261 10 440 3 179
10 423 16 544 6 120 8 220 5 223 -2 2 -7 -6 -11 -19z m-327 -2544 c26 -18 29
-60 5 -72 -10 -5 -65 -13 -123 -17 -172 -13 -191 -12 -204 8 -26 41 33 72 164
86 116 13 134 12 158 -5z m-485 -59 c22 -4 28 -11 25 -28 -2 -18 -24 -29 -133
-69 -112 -40 -133 -45 -150 -34 -27 18 -31 43 -10 66 22 24 108 61 164 69 47
7 54 7 104 -4z m527 -45 c0 -5 -4 -10 -10 -10 -5 0 -10 5 -10 10 0 6 5 10 10
10 6 0 10 -4 10 -10z m-132 -409 c3 -20 2 -22 -11 -10 -9 8 -11 16 -5 18 6 2
4 7 -3 13 -11 8 -11 9 1 5 8 -2 17 -14 18 -26z"/>
<path d="M3157 10213 c-4 -3 -7 -11 -7 -17 0 -6 5 -5 12 2 6 6 9 14 7 17 -3 3
-9 2 -12 -2z"/>
<path d="M6900 10159 c0 -5 5 -7 10 -4 6 3 10 8 10 11 0 2 -4 4 -10 4 -5 0
-10 -5 -10 -11z"/>
<path d="M3097 10130 c-3 -11 -3 -20 -1 -20 2 0 8 9 14 20 6 11 7 20 2 20 -6
0 -12 -9 -15 -20z"/>
<path d="M2186 9315 c2 -440 3 -808 4 -817 0 -10 8 -18 18 -18 11 0 13 3 5 8
-12 7 -15 51 -3 50 22 -2 40 4 40 13 0 5 -5 7 -11 3 -7 -4 -9 1 -7 12 2 12 11
18 22 16 18 -3 18 -2 3 13 -14 13 -14 20 -4 36 7 12 19 18 30 15 16 -4 22 6
17 29 -7 34 -6 54 3 48 6 -4 8 2 5 15 -4 15 -3 20 5 15 7 -4 19 -8 27 -10 11
-1 9 3 -4 13 -20 14 -18 24 6 27 14 3 18 9 18 30 0 8 -4 7 -10 -3 -8 -13 -10
-12 -10 3 0 9 5 17 11 17 6 0 8 9 4 23 -6 21 -6 21 10 3 14 -19 15 -18 11 12
-2 23 1 32 11 32 8 0 11 5 7 12 -4 7 -3 8 4 4 7 -4 12 -2 12 4 0 6 4 9 8 6 5
-3 15 6 23 20 12 23 11 27 -5 36 -16 9 -14 12 18 34 20 14 36 29 36 34 0 21
-13 39 -24 33 -6 -3 -5 0 2 8 11 12 14 12 23 -1 8 -11 9 -9 4 9 -6 20 -4 23
10 18 11 -5 15 -3 13 5 -3 7 -10 13 -16 13 -5 0 -14 4 -19 9 -5 5 -3 6 5 2 6
-4 12 -3 12 3 0 6 7 8 15 4 17 -6 17 17 1 29 -6 4 2 12 17 19 31 14 34 24 10
38 -17 9 -17 10 -1 16 9 4 23 3 30 -1 10 -6 10 -5 2 7 -6 8 -11 21 -11 29 0 8
-26 69 -58 135 -81 169 -278 591 -302 645 l-20 45 3 -800z m268 -250 c3 -8 1
-15 -4 -15 -6 0 -10 7 -10 15 0 8 2 15 4 15 2 0 6 -7 10 -15z m26 -20 c0 -2
-9 -9 -20 -15 -12 -6 -20 -7 -20 -1 0 5 8 12 18 14 9 3 18 5 20 6 1 0 2 -1 2
-4z m-40 -84 c0 -14 -18 -23 -31 -15 -8 4 -7 9 2 15 18 11 29 11 29 0z m-140
-297 c0 -2 -7 -4 -15 -4 -8 0 -15 4 -15 10 0 5 7 7 15 4 8 -4 15 -8 15 -10z"/>
<path d="M3062 10075 c-24 -28 -27 -35 -13 -35 5 0 16 14 25 30 18 37 16 37
-12 5z"/>
<path d="M6780 10050 c0 -5 5 -10 11 -10 5 0 7 5 4 10 -3 6 -8 10 -11 10 -2 0
-4 -4 -4 -10z"/>
<path d="M6715 9990 c3 -5 8 -10 11 -10 2 0 4 5 4 10 0 6 -5 10 -11 10 -5 0
-7 -4 -4 -10z"/>
<path d="M5710 9956 c0 -2 8 -10 18 -17 15 -13 16 -12 3 4 -13 16 -21 21 -21
13z"/>
<path d="M6599 9923 c-12 -16 -12 -17 2 -6 9 7 20 9 24 5 5 -4 5 -1 1 6 -9 16
-11 15 -27 -5z"/>
<path d="M2962 9909 c-19 -30 -9 -33 16 -4 13 15 17 25 9 25 -7 0 -18 -9 -25
-21z"/>
<path d="M10110 9869 c0 -5 5 -7 10 -4 6 3 10 8 10 11 0 2 -4 4 -10 4 -5 0
-10 -5 -10 -11z"/>
<path d="M10147 9835 c3 -8 9 -12 14 -9 12 7 11 11 -5 17 -10 4 -13 1 -9 -8z"/>
<path d="M5985 9820 c-4 -6 3 -10 14 -10 25 0 27 6 6 13 -8 4 -17 2 -20 -3z"/>
<path d="M2826 9683 c-6 -14 -5 -15 5 -6 7 7 10 15 7 18 -3 3 -9 -2 -12 -12z"/>
<path d="M2790 9630 c0 -5 5 -10 11 -10 5 0 7 5 4 10 -3 6 -8 10 -11 10 -2 0
-4 -4 -4 -10z"/>
<path d="M10335 9550 c3 -5 8 -10 11 -10 2 0 4 5 4 10 0 6 -5 10 -11 10 -5 0
-7 -4 -4 -10z"/>
<path d="M10360 9511 c0 -6 4 -13 10 -16 6 -3 7 1 4 9 -7 18 -14 21 -14 7z"/>
<path d="M2685 9450 c3 -5 8 -10 11 -10 2 0 4 5 4 10 0 6 -5 10 -11 10 -5 0
-7 -4 -4 -10z"/>
<path d="M10536 9175 c4 -8 8 -15 10 -15 2 0 4 7 4 15 0 8 -4 15 -10 15 -5 0
-7 -7 -4 -15z"/>
<path d="M2400 8890 c-9 -6 -10 -10 -3 -10 6 0 15 5 18 10 8 12 4 12 -15 0z"/>
<path d="M2315 8710 c-3 -5 -1 -10 4 -10 6 0 11 5 11 10 0 6 -2 10 -4 10 -3 0
-8 -4 -11 -10z"/>
<path d="M2261 8626 c-8 -10 -9 -16 -1 -21 5 -3 13 1 16 10 9 22 -1 29 -15 11z"/>
<path d="M7881 8547 c-13 -21 -12 -21 5 -5 10 10 16 20 13 22 -3 3 -11 -5 -18
-17z"/>
<path d="M7952 8561 c3 -15 -15 -40 -24 -35 -5 4 -5 11 1 18 8 9 7 13 -4 13
-8 0 -13 -3 -10 -5 3 -3 -3 -11 -13 -18 -16 -12 -16 -12 3 -11 13 1 20 -4 19
-14 -1 -9 4 -16 11 -16 8 0 11 7 7 15 -3 9 -1 13 5 9 6 -4 17 1 24 11 13 15
12 16 -3 3 -21 -16 -25 1 -4 18 14 11 32 -1 36 -24 1 -5 8 -9 17 -7 10 2 12
-1 7 -9 -5 -8 -3 -10 6 -4 10 6 10 10 -2 19 -8 6 -13 18 -11 26 4 13 3 13 -6
0 -9 -13 -15 -8 -13 11 0 3 -10 5 -23 5 -13 0 -23 -2 -23 -5z"/>
<path d="M10820 8541 c0 -5 7 -12 16 -15 14 -5 15 -4 4 9 -14 17 -20 19 -20 6z"/>
<path d="M7986 8495 c7 -18 6 -19 -9 -6 -15 12 -17 12 -11 -3 3 -9 10 -16 14
-16 16 0 22 22 11 33 -9 9 -10 7 -5 -8z"/>
<path d="M7862 8495 c4 -5 3 -14 -2 -20 -7 -8 -4 -17 8 -29 15 -13 19 -13 19
-2 0 8 -4 14 -8 13 -4 -1 -6 3 -5 8 0 6 10 9 20 7 23 -3 20 1 -14 18 -14 7
-22 9 -18 5z"/>
<path d="M8019 8479 l-24 -20 28 17 c15 9 27 18 27 20 0 8 -8 4 -31 -17z"/>
<path d="M7943 8458 c0 -13 1 -17 4 -10 3 6 10 9 16 5 7 -4 6 1 -2 10 -17 21
-17 21 -18 -5z"/>
<path d="M8021 8456 c-9 -11 -9 -16 1 -22 7 -4 10 -4 6 1 -4 4 -3 14 3 22 6 7
9 13 6 13 -2 0 -10 -6 -16 -14z"/>
<path d="M7910 8445 c10 -12 10 -15 -1 -15 -10 -1 -8 -4 3 -11 17 -9 58 3 58
17 0 2 -9 0 -19 -6 -26 -13 -31 -13 -25 4 3 7 -2 16 -12 20 -14 5 -15 4 -4 -9z"/>
<path d="M7981 8444 c0 -11 3 -14 6 -6 3 7 2 16 -1 19 -3 4 -6 -2 -5 -13z"/>
<path d="M6889 8293 c-13 -16 -12 -17 4 -4 16 13 21 21 13 21 -2 0 -10 -8 -17
-17z"/>
<path d="M10896 8277 c3 -10 9 -15 12 -12 3 3 0 11 -7 18 -10 9 -11 8 -5 -6z"/>
<path d="M2029 8085 c0 -5 -2 -20 -5 -32 -5 -28 2 -30 15 -5 6 11 6 24 0 33
-5 7 -9 10 -10 4z"/>
<path d="M7505 8050 c-4 -6 -9 -8 -13 -6 -4 2 -16 -2 -27 -10 -10 -8 -14 -14
-8 -14 7 0 14 4 17 9 9 13 47 1 39 -13 -3 -6 0 -5 8 3 11 10 11 15 1 18 -6 3
-10 9 -6 14 3 5 3 9 0 9 -3 0 -8 -5 -11 -10z"/>
<path d="M7163 8035 c0 -8 4 -12 8 -9 4 2 10 -2 12 -8 4 -8 6 -9 6 -2 1 6 -5
17 -12 23 -10 8 -14 7 -14 -4z"/>
<path d="M7246 8037 c3 -10 9 -15 12 -12 3 3 0 11 -7 18 -10 9 -11 8 -5 -6z"/>
<path d="M7335 8040 c-3 -6 -12 -7 -18 -3 -9 5 -9 3 0 -8 10 -12 9 -20 -3 -37
-13 -20 -13 -21 1 -16 8 3 16 12 16 20 3 31 4 34 14 33 6 -1 9 -6 7 -12 -2 -6
4 -5 12 3 9 7 16 15 16 18 0 3 -3 2 -7 -1 -3 -4 -12 -2 -19 4 -8 7 -14 7 -19
-1z"/>
<path d="M7426 8034 c-3 -8 -10 -13 -14 -10 -5 3 -9 -1 -9 -9 0 -10 4 -12 12
-5 7 6 16 6 23 0 8 -7 9 -7 3 1 -5 6 -7 18 -4 25 3 8 3 14 0 14 -3 0 -8 -7
-11 -16z"/>
<path d="M7203 8025 c0 -8 4 -12 9 -9 5 3 6 10 3 15 -9 13 -12 11 -12 -6z"/>
<path d="M7273 8016 c-1 -12 1 -15 4 -8 3 6 9 9 14 6 6 -3 5 -12 -3 -22 -12
-15 -11 -16 5 -3 12 9 14 17 7 26 -5 6 -8 14 -5 17 3 2 -1 5 -8 5 -7 0 -13
-10 -14 -21z"/>
<path d="M7561 8014 c0 -11 3 -14 6 -6 3 7 2 16 -1 19 -3 4 -6 -2 -5 -13z"/>
<path d="M7369 8003 c-13 -16 -12 -17 4 -4 9 7 17 15 17 17 0 8 -8 3 -21 -13z"/>
<path d="M7486 8003 c-4 -9 -4 -14 0 -10 4 4 13 -1 21 -11 12 -15 13 -14 2 8
-16 33 -16 33 -23 13z"/>
<path d="M7228 7996 c4 -6 7 -14 7 -18 0 -19 11 -14 11 6 0 12 -6 23 -13 23
-6 0 -9 -5 -5 -11z"/>
<path d="M7458 7987 c-3 -19 -2 -25 4 -19 6 6 8 18 6 28 -3 14 -5 12 -10 -9z"/>
<path d="M7581 7984 c0 -11 3 -14 6 -6 3 7 2 16 -1 19 -3 4 -6 -2 -5 -13z"/>
<path d="M7371 7968 c-22 -21 -23 -22 -17 -3 6 20 6 20 -9 1 -10 -13 -15 -15
-15 -6 0 7 -3 10 -6 7 -4 -4 -1 -13 6 -22 8 -10 9 -15 1 -15 -6 0 -11 -5 -11
-11 0 -8 4 -9 13 0 8 6 18 7 22 3 5 -4 5 -2 2 4 -7 12 26 48 35 39 2 -3 5 2 5
10 0 19 2 19 -26 -7z"/>
<path d="M1987 7973 c-4 -3 -7 -13 -7 -22 1 -13 3 -13 11 2 11 19 8 33 -4 20z"/>
<path d="M7406 7953 c-6 -14 -5 -15 5 -6 7 7 10 15 7 18 -3 3 -9 -2 -12 -12z"/>
<path d="M7279 7943 c-12 -16 -12 -17 2 -6 9 7 19 10 22 6 4 -3 7 -1 7 5 0 17
-16 15 -31 -5z"/>
<path d="M7373 7935 c-3 -9 -3 -18 -1 -21 3 -3 8 4 11 16 6 23 -1 27 -10 5z"/>
<path d="M7446 7942 c-3 -5 1 -9 9 -9 8 0 12 4 9 9 -3 4 -7 8 -9 8 -2 0 -6 -4
-9 -8z"/>
<path d="M7415 7909 c-4 -6 -5 -12 -2 -15 2 -3 7 2 10 11 7 17 1 20 -8 4z"/>
<path d="M10985 7910 c3 -5 11 -10 16 -10 6 0 7 5 4 10 -3 6 -11 10 -16 10 -6
0 -7 -4 -4 -10z"/>
<path d="M7357 7899 c7 -7 15 -10 18 -7 3 3 -2 9 -12 12 -14 6 -15 5 -6 -5z"/>
<path d="M7493 7865 c0 -8 4 -12 9 -9 5 3 6 10 3 15 -9 13 -12 11 -12 -6z"/>
<path d="M7465 7840 c3 -5 8 -10 11 -10 2 0 4 5 4 10 0 6 -5 10 -11 10 -5 0
-7 -4 -4 -10z"/>
<path d="M11009 7848 c-6 -12 -5 -46 2 -43 4 3 7 14 6 25 -1 18 -5 25 -8 18z"/>
<path d="M3706 7761 c-3 -5 2 -15 12 -22 15 -12 16 -12 5 2 -7 9 -10 19 -6 22
3 4 4 7 0 7 -3 0 -8 -4 -11 -9z"/>
<path d="M3727 7699 c7 -7 15 -10 18 -7 3 3 -2 9 -12 12 -14 6 -15 5 -6 -5z"/>
<path d="M11050 7460 c0 -5 5 -10 10 -10 6 0 10 5 10 10 0 6 -4 10 -10 10 -5
0 -10 -4 -10 -10z"/>
<path d="M11075 7111 c-3 -5 -1 -12 5 -16 5 -3 10 1 10 9 0 18 -6 21 -15 7z"/>
<path d="M11075 7070 c-3 -5 -2 -10 4 -10 5 0 13 5 16 10 3 6 2 10 -4 10 -5 0
-13 -4 -16 -10z"/>
<path d="M1624 6969 c-4 -7 -3 -9 4 -5 5 3 13 0 15 -6 4 -9 6 -10 6 -1 1 17
-16 25 -25 12z"/>
<path d="M11075 6940 c-3 -5 -1 -10 4 -10 6 0 11 5 11 10 0 6 -2 10 -4 10 -3
0 -8 -4 -11 -10z"/>
<path d="M1596 6657 c3 -10 9 -15 12 -12 3 3 0 11 -7 18 -10 9 -11 8 -5 -6z"/>
<path d="M11086 6502 c-3 -6 -1 -14 5 -17 15 -10 25 3 12 16 -7 7 -13 7 -17 1z"/>
<path d="M1571 6362 c-17 -31 -13 -40 5 -14 9 13 14 26 11 29 -3 2 -10 -4 -16
-15z"/>
<path d="M1566 6121 c-3 -5 1 -11 9 -14 9 -4 12 -1 8 9 -6 16 -10 17 -17 5z"/>
<path d="M11082 6060 c0 -14 2 -19 5 -12 2 6 2 18 0 25 -3 6 -5 1 -5 -13z"/>
<path d="M1592 5784 c-7 -8 -8 -14 -3 -14 10 0 25 19 20 25 -2 1 -10 -3 -17
-11z"/>
<path d="M8885 5640 c-120 -8 -185 -58 -185 -144 0 -79 45 -117 161 -135 35
-6 86 -23 114 -37 52 -28 57 -28 369 -53 122 -10 131 -9 162 9 56 35 70 117
33 195 -12 25 -33 54 -47 65 -30 24 -97 43 -126 36 -13 -3 -35 3 -53 14 -40
24 -75 30 -188 35 -49 1 -106 7 -125 11 -19 5 -71 7 -115 4z"/>
<path d="M1610 5615 c0 -8 2 -15 4 -15 2 0 6 7 10 15 3 8 1 15 -4 15 -6 0 -10
-7 -10 -15z"/>
<path d="M1637 5533 c-4 -3 -7 -11 -7 -17 0 -6 5 -5 12 2 6 6 9 14 7 17 -3 3
-9 2 -12 -2z"/>
<path d="M1636 5483 c-4 -9 -3 -20 1 -24 4 -4 9 3 9 17 2 28 -1 31 -10 7z"/>
<path d="M1660 5309 c0 -5 5 -7 10 -4 6 3 10 8 10 11 0 2 -4 4 -10 4 -5 0 -10
-5 -10 -11z"/>
<path d="M8753 5239 c-134 -10 -148 -45 -55 -140 45 -47 71 -64 124 -83 37
-13 79 -33 94 -45 15 -12 32 -21 38 -21 6 0 61 -25 123 -56 90 -45 126 -58
188 -65 67 -9 81 -8 108 9 48 27 62 64 47 118 -7 24 -25 64 -41 89 -22 35 -37
46 -71 56 -24 6 -79 26 -123 44 -77 31 -176 60 -260 75 -22 4 -51 11 -65 17
-14 5 -62 6 -107 2z"/>
<path d="M4855 5208 c-43 -15 -75 -47 -97 -96 l-19 -43 23 -42 c25 -45 136
-127 173 -127 11 0 36 -8 55 -19 38 -20 261 -43 450 -46 175 -3 328 31 443 99
58 35 64 44 72 131 l7 70 -40 44 -41 43 -88 -5 c-48 -3 -117 -11 -153 -16 -36
-6 -90 -13 -120 -16 -30 -3 -67 -10 -82 -16 -31 -13 -255 3 -303 21 -53 20
-240 32 -280 18z"/>
<path d="M10911 5178 c0 -9 -4 -25 -7 -35 -5 -17 -5 -17 6 0 6 10 9 25 7 35
-4 15 -5 15 -6 0z"/>
<path d="M10890 5115 c0 -5 5 -17 10 -25 5 -8 10 -10 10 -5 0 6 -5 17 -10 25
-5 8 -10 11 -10 5z"/>
<path d="M10873 5045 c0 -8 4 -12 9 -9 5 3 6 10 3 15 -9 13 -12 11 -12 -6z"/>
<path d="M1730 5020 c0 -5 5 -10 11 -10 5 0 7 5 4 10 -3 6 -8 10 -11 10 -2 0
-4 -4 -4 -10z"/>
<path d="M1765 4929 c-4 -6 -5 -11 -4 -12 2 -2 12 -9 22 -16 15 -12 17 -12 11
3 -3 9 -10 16 -16 16 -5 0 -6 5 -3 10 3 6 4 10 1 10 -3 0 -8 -5 -11 -11z"/>
<path d="M10822 4900 c0 -14 2 -19 5 -12 2 6 2 18 0 25 -3 6 -5 1 -5 -13z"/>
<path d="M1797 4851 c-6 -22 9 -49 20 -37 4 5 3 11 -3 13 -7 2 -10 13 -7 23 3
11 3 20 0 20 -2 0 -7 -9 -10 -19z"/>
<path d="M1810 4792 c0 -5 6 -15 14 -21 12 -10 14 -9 12 5 -3 19 -26 33 -26
16z"/>
<path d="M10725 4701 c-3 -5 -1 -12 5 -16 5 -3 10 1 10 9 0 18 -6 21 -15 7z"/>
<path d="M1860 4691 c0 -6 4 -13 10 -16 6 -3 7 1 4 9 -7 18 -14 21 -14 7z"/>
<path d="M10585 4370 c-3 -5 -2 -10 4 -10 5 0 13 5 16 10 3 6 2 10 -4 10 -5 0
-13 -4 -16 -10z"/>
<path d="M1995 4360 c-3 -5 -1 -10 4 -10 6 0 11 5 11 10 0 6 -2 10 -4 10 -3 0
-8 -4 -11 -10z"/>
<path d="M10588 4343 c7 -3 16 -2 19 1 4 3 -2 6 -13 5 -11 0 -14 -3 -6 -6z"/>
<path d="M10600 4310 c0 -20 -2 -22 -10 -10 -7 11 -10 11 -10 2 0 -7 -4 -10
-10 -7 -5 3 -10 1 -10 -4 0 -6 6 -11 13 -11 7 0 13 -9 13 -19 0 -16 -4 -18
-21 -9 -16 9 -18 8 -7 -3 6 -7 12 -18 12 -23 0 -6 -4 -4 -10 4 -5 8 -12 12
-15 9 -9 -9 6 -40 16 -33 5 3 6 -2 3 -10 -3 -9 -11 -13 -18 -9 -6 3 -3 -2 6
-13 11 -12 14 -24 8 -34 -9 -17 -7 -80 3 -97 4 -7 2 -15 -4 -19 -7 -4 -9 -3
-6 3 7 11 -22 28 -31 18 -3 -3 0 -5 6 -5 7 0 12 -6 12 -14 0 -8 6 -17 13 -19
9 -4 9 -6 0 -6 -16 -1 -5 -31 12 -31 7 0 15 -10 19 -22 9 -34 8 -38 -9 -38 -9
0 -12 -6 -9 -15 4 -8 14 -15 23 -15 14 0 14 -2 1 -10 -10 -7 -11 -10 -2 -10
16 0 19 11 26 98 4 55 2 71 -7 65 -9 -5 -9 -3 -1 8 13 16 16 253 3 284 -7 18
-8 18 -9 -5z"/>
<path d="M10527 4133 c-10 -9 -9 -23 1 -23 5 0 9 7 9 15 0 17 -1 18 -10 8z"/>
<path d="M10541 3954 c-1 -18 26 -37 34 -24 3 5 0 10 -9 10 -8 0 -17 6 -19 13
-4 7 -6 8 -6 1z"/>
<path d="M2526 3455 c-6 -16 19 -33 31 -21 4 3 -1 6 -10 6 -10 0 -14 5 -11 15
4 8 4 15 1 15 -3 0 -8 -7 -11 -15z"/>
<path d="M10843 3456 c5 -15 24 -18 24 -3 0 8 -6 14 -14 14 -7 0 -12 -5 -10
-11z"/>
<path d="M10895 3410 c3 -5 11 -10 16 -10 6 0 7 5 4 10 -3 6 -11 10 -16 10 -6
0 -7 -4 -4 -10z"/>
<path d="M2565 3290 c-3 -5 1 -10 10 -10 9 0 13 5 10 10 -3 6 -8 10 -10 10 -2
0 -7 -4 -10 -10z"/>
<path d="M11071 3214 c0 -11 3 -14 6 -6 3 7 2 16 -1 19 -3 4 -6 -2 -5 -13z"/>
<path d="M2513 2995 c-15 -16 -16 -25 -5 -25 4 0 13 9 20 20 14 23 3 26 -15 5z"/>
<path d="M2420 2769 c0 -5 5 -7 10 -4 6 3 10 8 10 11 0 2 -4 4 -10 4 -5 0 -10
-5 -10 -11z"/>
<path d="M2330 2585 c0 -8 2 -15 4 -15 2 0 6 7 10 15 3 8 1 15 -4 15 -6 0 -10
-7 -10 -15z"/>
<path d="M2230 2370 c0 -5 5 -10 10 -10 6 0 10 5 10 10 0 6 -4 10 -10 10 -5 0
-10 -4 -10 -10z"/>
<path d="M11676 2352 c-3 -5 1 -9 9 -9 8 0 12 4 9 9 -3 4 -7 8 -9 8 -2 0 -6
-4 -9 -8z"/>
<path d="M2196 2269 c3 -6 0 -15 -7 -20 -7 -4 -10 -11 -6 -16 9 -8 27 15 27
35 0 6 -5 12 -11 12 -5 0 -7 -5 -3 -11z"/>
<path d="M2181 2204 c0 -11 3 -14 6 -6 3 7 2 16 -1 19 -3 4 -6 -2 -5 -13z"/>
<path d="M2110 2010 c-9 -6 -10 -10 -3 -10 6 0 15 5 18 10 8 12 4 12 -15 0z"/>
<path d="M2075 1910 c3 -5 8 -10 11 -10 2 0 4 5 4 10 0 6 -5 10 -11 10 -5 0
-7 -4 -4 -10z"/>
<path d="M11911 1758 c0 -13 4 -32 8 -43 6 -14 8 -8 7 23 0 23 -4 42 -8 42 -5
0 -8 -10 -7 -22z"/>
<path d="M12000 1450 c0 -11 4 -20 9 -20 5 0 7 9 4 20 -3 11 -7 20 -9 20 -2 0
-4 -9 -4 -20z"/>
<path d="M1941 1364 c0 -11 3 -14 6 -6 3 7 2 16 -1 19 -3 4 -6 -2 -5 -13z"/>
<path d="M12062 1156 c7 -8 15 -12 17 -11 5 6 -10 25 -20 25 -5 0 -4 -6 3 -14z"/>
<path d="M1893 1070 c1 -11 5 -20 9 -20 11 0 10 28 -1 35 -6 3 -9 -4 -8 -15z"/>
<path d="M12081 173 c-1 -12 4 -25 9 -28 12 -7 12 2 0 30 -8 19 -9 19 -9 -2z"/>
</g>
</svg>
