<?xml version="1.0" standalone="no"?>
<!DOCTYPE svg PUBLIC "-//W3C//DTD SVG 20010904//EN"
 "http://www.w3.org/TR/2001/REC-SVG-20010904/DTD/svg10.dtd">
<svg version="1.0" xmlns="http://www.w3.org/2000/svg"
 width="600.000000pt" height="600.000000pt" viewBox="0 0 600.000000 600.000000"
 preserveAspectRatio="xMidYMid meet">

<g transform="translate(0.000000,600.000000) scale(0.100000,-0.100000)"
fill="#000000" stroke="none">
<path d="M2986 5248 c-11 -6 -47 -10 -80 -9 -39 1 -71 -4 -90 -14 -15 -8 -47
-15 -71 -15 -28 0 -54 -8 -76 -23 -19 -13 -40 -22 -47 -19 -24 8 -82 -20 -113
-56 -18 -20 -42 -42 -53 -47 -12 -6 -25 -24 -31 -40 -7 -22 -15 -29 -31 -27
-24 3 -84 -42 -84 -64 0 -7 -9 -18 -20 -24 -25 -13 -52 -64 -44 -83 3 -8 -2
-17 -10 -20 -22 -9 -48 -66 -42 -92 4 -15 -2 -32 -16 -51 -15 -18 -23 -44 -24
-76 -2 -26 -10 -58 -18 -70 -18 -26 -21 -61 -6 -89 8 -14 6 -25 -6 -45 -19
-28 -22 -110 -6 -126 6 -6 7 -22 1 -40 -5 -20 -4 -43 6 -72 8 -22 15 -59 15
-82 0 -22 7 -49 15 -60 8 -10 15 -38 15 -61 0 -29 7 -50 25 -71 13 -16 22 -32
19 -35 -10 -10 28 -76 48 -83 11 -3 24 -19 30 -34 5 -17 22 -35 39 -42 16 -7
33 -25 38 -40 6 -16 22 -33 38 -40 15 -6 43 -25 60 -42 27 -25 46 -31 105 -39
77 -9 88 -10 128 -8 62 4 73 -3 92 -60 10 -30 28 -62 41 -71 l22 -17 -31 -38
c-26 -32 -43 -41 -110 -60 -52 -14 -81 -18 -85 -11 -8 13 -81 -2 -249 -49
-383 -108 -513 -217 -686 -578 -126 -263 -163 -412 -171 -681 -6 -214 0 -247
50 -290 25 -21 38 -25 67 -21 l35 4 28 -114 c33 -135 88 -322 122 -413 32 -84
89 -158 141 -184 l42 -21 -6 -67 c-5 -68 -5 -68 21 -68 14 0 27 4 29 8 2 5 48
4 103 -1 58 -5 273 -5 510 0 226 4 635 8 910 8 l500 0 -1 55 c0 49 -10 212
-30 535 l-6 100 131 1 131 0 0 -37 c0 -70 31 -624 35 -637 3 -7 15 -12 27 -10
29 4 37 44 37 203 2 337 -67 1070 -130 1380 -73 361 -261 640 -518 770 -74 37
-149 57 -136 35 4 -6 -5 -4 -19 5 -28 18 -53 58 -66 106 -7 25 -4 28 53 55
119 56 226 191 262 330 8 32 23 64 33 71 33 23 53 47 58 73 3 14 12 40 20 58
8 18 14 39 14 46 0 7 9 21 20 31 11 10 20 29 20 41 0 13 9 38 20 56 11 18 20
43 20 56 0 12 7 34 16 47 11 17 14 36 10 57 -3 18 -7 67 -10 108 -7 118 -31
279 -44 292 -7 7 -12 19 -12 28 0 20 -57 137 -71 145 -5 4 -9 14 -9 23 0 48
-23 94 -56 114 -21 12 -34 28 -34 40 0 27 -62 85 -98 93 -16 3 -39 19 -50 35
-14 19 -38 33 -65 41 -23 6 -49 17 -57 24 -30 26 -80 45 -117 45 -21 0 -57 9
-78 21 -34 17 -51 19 -115 14 -54 -4 -89 -1 -125 10 -59 17 -122 19 -149 3z
m376 -785 c20 -3 44 -1 53 5 12 6 28 6 46 -1 21 -8 40 -8 70 0 22 6 53 8 67 4
15 -4 42 -4 61 0 24 5 43 3 63 -7 30 -16 33 -28 22 -107 -6 -43 -9 -46 -30
-41 -37 9 -93 -5 -104 -26 -9 -17 -7 -18 27 -13 l38 6 -31 -34 c-18 -19 -37
-44 -43 -56 -10 -19 -17 -21 -64 -16 -35 4 -64 0 -90 -10 -37 -16 -37 -16 -51
11 -19 37 -54 68 -96 86 -19 8 -27 15 -17 16 22 0 22 24 0 45 -12 13 -28 16
-62 12 -41 -4 -52 -12 -109 -74 -34 -37 -72 -81 -82 -98 -23 -35 -62 -40 -173
-23 l-68 11 7 31 c3 17 14 42 24 56 10 15 20 55 24 99 4 46 13 82 22 92 14 15
96 29 167 28 17 0 84 0 163 0 22 0 52 5 65 10 13 6 33 8 44 4 11 -3 36 -7 57
-10z m368 -218 c11 -14 18 -56 36 -247 l7 -68 -28 0 c-16 0 -47 9 -70 20 -101
49 -106 178 -12 278 34 36 49 39 67 17z m-425 -18 c46 -25 85 -92 85 -144 0
-82 -57 -156 -138 -179 -119 -35 -232 34 -232 141 0 41 25 104 54 140 15 19
17 19 27 3 12 -22 29 -23 29 -3 0 9 11 27 25 40 32 33 94 33 150 2z m265 -142
c0 -63 -1 -65 -25 -65 -28 0 -34 -17 -10 -27 24 -9 44 -55 35 -79 -15 -39 -48
-40 -103 -1 -26 18 -30 18 -44 4 -14 -14 -14 -18 -2 -33 18 -22 71 -44 107
-44 38 0 79 33 87 70 6 28 7 29 30 14 13 -8 49 -18 79 -21 l56 -6 0 -66 c-1
-82 -13 -138 -48 -210 -34 -71 -132 -171 -197 -201 -74 -34 -186 -38 -298 -11
-96 23 -143 26 -151 12 -13 -20 15 -62 51 -77 61 -26 192 -46 270 -42 58 3 73
0 73 -11 0 -56 65 -159 110 -173 11 -3 5 -20 -27 -75 -71 -119 -137 -163 -242
-163 l-60 0 5 29 c5 23 1 35 -19 55 -32 32 -52 32 -127 2 -74 -30 -112 -57
-142 -99 l-22 -32 39 34 c49 43 151 91 191 91 39 0 54 -17 52 -61 -1 -30 -7
-37 -47 -57 -25 -12 -59 -34 -76 -48 -23 -19 -10 -15 50 17 61 33 86 41 107
36 37 -10 48 -46 19 -67 -65 -45 -73 -57 -120 -185 l-49 -130 -68 -35 c-82
-41 -86 -49 -193 -320 -143 -365 -274 -617 -444 -854 -116 -163 -198 -248
-268 -280 -98 -44 -154 -34 -219 40 -41 47 -69 111 -105 234 -14 52 -51 173
-81 268 -44 141 -53 177 -43 189 16 18 70 46 134 68 47 16 247 56 252 51 2 -2
-20 -31 -47 -66 -59 -73 -100 -149 -100 -185 0 -43 29 -29 54 28 31 71 77 129
238 303 164 178 223 251 328 406 107 156 196 319 210 380 8 42 7 65 -10 135
-24 102 -24 106 -5 147 16 34 34 45 175 109 106 48 134 53 159 28 12 -12 21
-25 21 -29 0 -5 -27 -16 -60 -26 -126 -34 -221 -99 -219 -147 1 -23 1 -23 10
3 14 37 88 84 182 113 99 32 141 32 161 3 9 -12 19 -18 23 -14 10 10 -10 39
-37 53 -13 6 -25 22 -27 35 -4 32 -48 68 -84 68 -16 0 -70 -16 -119 -36 l-91
-35 -36 32 c-21 17 -59 42 -86 54 l-50 21 61 23 c80 29 117 61 136 118 22 63
21 73 -16 160 -26 64 -46 91 -129 177 -82 86 -95 104 -82 112 29 18 8 41 -45
48 -41 5 -56 13 -82 43 -30 34 -32 40 -28 94 3 44 10 65 28 84 28 29 78 46
102 34 30 -16 84 -10 111 11 24 19 33 20 104 11 43 -5 94 -13 113 -18 34 -8
35 -11 41 -65 8 -70 36 -117 88 -146 85 -48 192 -38 262 25 54 49 72 87 75
158 3 69 9 73 97 74 l57 1 0 -65z m-796 -969 l60 -27 -40 -20 c-21 -12 -46
-27 -54 -34 -13 -12 -25 -10 -78 8 -68 24 -77 41 -46 86 14 20 23 23 58 18 22
-2 68 -16 100 -31z m550 -410 c17 -19 157 -143 310 -277 154 -134 326 -284
383 -334 l103 -90 -60 -3 c-47 -2 -82 5 -167 33 -198 66 -420 202 -627 385
l-94 83 35 96 c37 103 57 141 75 141 6 0 25 -15 42 -34z"/>
<path d="M3656 4158 c-18 -26 -21 -90 -6 -119 18 -32 49 -24 66 17 17 40 12
78 -13 107 -21 22 -29 22 -47 -5z"/>
<path d="M3216 4148 c-34 -48 -5 -151 38 -135 23 9 38 56 31 97 -12 62 -41 78
-69 38z"/>
<path d="M2532 4018 c-19 -19 -14 -30 10 -22 20 6 21 5 9 -10 -11 -13 -11 -19
-1 -31 12 -14 15 -14 32 1 17 16 19 16 31 0 14 -20 48 -19 54 1 3 7 -9 26 -25
43 -33 32 -87 41 -110 18z"/>
<path d="M3275 3769 c-127 -39 -134 -200 -13 -269 98 -57 368 -16 368 55 0 10
-10 15 -29 15 -27 0 -29 3 -35 53 -10 83 -10 82 42 97 l47 14 -85 7 c-47 4
-114 14 -150 23 -72 18 -101 19 -145 5z m168 -55 c106 -9 103 -29 -5 -38 -46
-4 -109 -10 -140 -13 -67 -7 -76 6 -25 37 35 22 55 23 170 14z m-33 -126 c8
-1 27 2 42 6 20 6 31 3 48 -14 12 -12 18 -26 14 -30 -15 -15 -130 -29 -165
-21 -42 10 -79 29 -79 40 0 13 71 30 100 25 14 -3 32 -6 40 -6z"/>
<path d="M2803 2442 c20 -22 77 -46 77 -33 0 4 -21 17 -47 30 -45 22 -47 22
-30 3z"/>
</g>
</svg>
